<?xml version="1.0" encoding="UTF-8"?>
<svg version="1.1" xmlns="http://www.w3.org/2000/svg" width="416" height="448">
<path d="M0 0 C137.28 0 274.56 0 416 0 C416 147.84 416 295.68 416 448 C278.72 448 141.44 448 0 448 C0 300.16 0 152.32 0 0 Z " fill="#161C33" transform="translate(0,0)"/>
<path d="M0 0 C0.78375 0.00451172 1.5675 0.00902344 2.375 0.01367188 C4.29170014 0.02535907 6.20836048 0.04329092 8.125 0.0625 C9.03917135 2.80501406 9.2704946 4.56999088 9.3359375 7.40625 C9.36429687 8.24027344 9.39265625 9.07429688 9.421875 9.93359375 C9.47395196 11.68598334 9.51822543 13.43862224 9.5546875 15.19140625 C9.585625 16.02542969 9.6165625 16.85945313 9.6484375 17.71875 C9.6781665 18.86053711 9.6781665 18.86053711 9.70849609 20.02539062 C10.22457 22.54949417 11.2436973 23.36926631 13.125 25.0625 C13.78873295 27.80592952 13.72759321 30.30778816 13.125 33.0625 C10.31747674 35.78494679 8.37039747 36.03288306 4.5 36.5 C1.125 36.0625 1.125 36.0625 -0.8125 34.5625 C-2.38765295 30.85625776 -2.19929691 28.08378169 -1.875 24.0625 C-1.215 23.4025 -0.555 22.7425 0.125 22.0625 C0.59159731 19.33780214 0.96099254 16.68070198 1.25 13.9375 C1.37955078 12.80634766 1.37955078 12.80634766 1.51171875 11.65234375 C1.72389261 9.78992873 1.92545763 7.92631069 2.125 6.0625 C-36.32219189 6.03076425 -36.32219189 6.03076425 -69.875 20.0625 C-70.0363058 23.12731021 -69.85650241 25.11799278 -68.875 28.0625 C-67.02528304 29.11271103 -67.02528304 29.11271103 -64.875 30.0625 C-63.99908203 30.76052734 -63.99908203 30.76052734 -63.10546875 31.47265625 C-49.67507185 41.04563617 -28.82735106 43.54379673 -12.9375 46.6875 C-11.73222656 46.92726562 -10.52695313 47.16703125 -9.28515625 47.4140625 C-3.18942493 48.31033478 2.97938793 48.62352771 9.125 49.0625 C9.125 60.9425 9.125 72.8225 9.125 85.0625 C-5.57749149 85.0625 -18.00256996 83.36296935 -32.125 80.1875 C-33.22618164 79.94306152 -34.32736328 79.69862305 -35.46191406 79.44677734 C-41.43929301 78.06094031 -47.04853157 76.39031119 -52.69018555 73.96801758 C-54.91068004 73.04771206 -57.13734079 72.31903617 -59.4375 71.625 C-63.42199646 70.32707296 -66.88619412 68.54555343 -70.5 66.4375 C-73.04628718 64.96333374 -75.64266324 63.61292603 -78.25 62.25 C-90.23171925 55.69775912 -100.28299871 47.45050193 -107.875 36.0625 C-107.545 35.4025 -107.215 34.7425 -106.875 34.0625 C-104.895 34.0625 -102.915 34.0625 -100.875 34.0625 C-101.205 31.4225 -101.535 28.7825 -101.875 26.0625 C-100.1759831 28.1308684 -98.97737376 29.61461478 -98.375 32.25 C-98.21 32.848125 -98.045 33.44625 -97.875 34.0625 C-96.885 34.3925 -95.895 34.7225 -94.875 35.0625 C-94.194375 35.92875 -93.51375 36.795 -92.8125 37.6875 C-84.21850345 48.4107554 -69.27029571 54.12124606 -56.875 59.0625 C-55.74771484 59.55169922 -55.74771484 59.55169922 -54.59765625 60.05078125 C-48.82127466 62.51767181 -42.87890971 64.36614495 -36.875 66.1875 C-36.04419922 66.44136475 -35.21339844 66.69522949 -34.35742188 66.95678711 C-26.06976032 69.42238272 -17.88915205 71.17931459 -9.25 71.6875 C-8.04085937 71.76226562 -6.83171875 71.83703125 -5.5859375 71.9140625 C-4.24402344 71.98753906 -4.24402344 71.98753906 -2.875 72.0625 C-2.875 68.1025 -2.875 64.1425 -2.875 60.0625 C-4.834375 59.815 -6.79375 59.5675 -8.8125 59.3125 C-14.5466856 58.49083316 -20.16940618 57.43141572 -25.8125 56.125 C-26.50915771 55.96741211 -27.20581543 55.80982422 -27.92358398 55.64746094 C-31.30586463 54.84001779 -34.44839952 53.88626542 -37.6328125 52.48046875 C-40.21298339 51.35203256 -42.0867754 50.70435893 -44.8125 50.3125 C-56.96793574 47.75674172 -70.6836696 41.46243364 -78.2109375 31.25 C-80.36540343 26.98059963 -81.12579667 21.68145502 -79.875 17.0625 C-72.42370438 6.78415456 -58.47705863 5.01738326 -46.875 3.0625 C-45.65425781 2.85496094 -44.43351562 2.64742188 -43.17578125 2.43359375 C-35.62665313 1.28638299 -28.30111295 0.87597422 -20.68408203 1.0480957 C-17.69048921 1.10960788 -14.89149297 1.06525978 -11.93359375 0.5703125 C-7.93262353 -0.09396097 -4.04661361 -0.04458134 0 0 Z " fill="#419695" transform="translate(189.875,77.9375)"/>
<path d="M0 0 C3.68700366 0.21068592 5.00512471 1.0045553 7.8125 3.5 C10.29787579 6.79805422 10.7369157 9.6226357 10.4765625 13.69921875 C9.09968756 20.34659038 4.78614203 24.81774199 -0.66015625 28.5703125 C-21.98372519 41.59940471 -50.88943358 50.33663212 -76 50 C-76.01458252 49.29391602 -76.02916504 48.58783203 -76.04418945 47.86035156 C-76.11873167 44.65635326 -76.21537205 41.45338984 -76.3125 38.25 C-76.33505859 37.13882813 -76.35761719 36.02765625 -76.38085938 34.8828125 C-76.41630859 33.81289062 -76.45175781 32.74296875 -76.48828125 31.640625 C-76.51446533 30.65610352 -76.54064941 29.67158203 -76.56762695 28.65722656 C-77.05957813 25.63385185 -78.05163668 24.30925371 -80 22 C-80.68484752 19.02662035 -80.39761129 17.1311889 -80 14 C-77.9375 11.9375 -77.9375 11.9375 -75 11 C-71.52738683 11.11974528 -69.04560004 11.35914836 -66.0625 13.1875 C-64.45926443 15.92243127 -64.61922522 17.8903393 -65 21 C-65.48855469 21.57363281 -65.97710937 22.14726563 -66.48046875 22.73828125 C-68.59597182 25.88706346 -68.51354645 28.49260323 -68.6875 32.25 C-68.75324219 33.51328125 -68.81898438 34.7765625 -68.88671875 36.078125 C-68.92410156 37.04234375 -68.96148437 38.0065625 -69 39 C-51.31001618 37.16454551 -26.03986214 34.02657476 -11 24 C-10.01 24 -9.02 24 -8 24 C-8 23.34 -8 22.68 -8 22 C-6.28515625 20.52734375 -6.28515625 20.52734375 -4.0625 18.9375 C-1.41985962 17.10094469 -1.41985962 17.10094469 1 15 C1.52813349 9.85868816 1.52813349 9.85868816 -1 5.5625 C-1.99 4.7890625 -1.99 4.7890625 -3 4 C-2.01 2.68 -1.02 1.36 0 0 Z " fill="#3C8387" transform="translate(296,88)"/>
<path d="M0 0 C1.94723595 2.92085393 2.55175352 4.59332678 3 8 C2.67 8.33 2.34 8.66 2 9 C2.12375 9.845625 2.2475 10.69125 2.375 11.5625 C1.87770198 16.12106515 -0.10910717 17.80423457 -3.19921875 21.04296875 C-5.20608672 23.10230804 -5.20608672 23.10230804 -7.0625 26.3125 C-9.36949879 29.51253058 -11.48644783 30.31642292 -15 32 C-16.35827971 33.64639965 -17.69254251 35.31295807 -19 37 C-21.5 38.625 -21.5 38.625 -24 40 C-24.598125 40.495 -25.19625 40.99 -25.8125 41.5 C-30.87317221 44.97017523 -37.13364989 46.41119685 -43 48 C-43.33 49.32 -43.66 50.64 -44 52 C-39.24636504 52.33164895 -36.95604207 51.56608134 -33 49 C-32.01 49 -31.02 49 -30 49 C-29.67 48.01 -29.34 47.02 -29 46 C-27.32177267 44.97990103 -25.6365771 43.96804959 -23.90625 43.0390625 C-20.31354307 41.08074274 -16.97652953 38.75952297 -13.75 36.25 C-12 35 -12 35 -10 35 C-9.67 34.01 -9.34 33.02 -9 32 C-6.82023287 29.70550828 -4.56854881 27.52793818 -2.25 25.375 C-0.74340914 23.90383382 -0.74340914 23.90383382 0 21 C1.32467746 20.3162955 2.65863633 19.65035814 4 19 C4.99 17.515 4.99 17.515 6 16 C5.1525827 22.05903372 1.90140116 25.47556139 -2 30 C-2.61617188 30.72445312 -3.23234375 31.44890625 -3.8671875 32.1953125 C-22.57971505 52.50969066 -53.72395104 63.86880769 -80.25 68.6875 C-81.92835938 69.00557617 -81.92835938 69.00557617 -83.640625 69.33007812 C-88.289793 70.19905587 -92.90428143 71.02646323 -97.609375 71.51953125 C-101.12008874 71.76771688 -101.12008874 71.76771688 -104 74 C-107.53950857 74.45185216 -109.33326715 74.42109443 -112.375 72.5 C-114.82483134 68.73102871 -114.5659239 66.45665069 -114 62 C-112.38671875 60.24609375 -112.38671875 60.24609375 -110 59 C-106.98828125 58.8828125 -106.98828125 58.8828125 -103.3125 59.125 C-84.98964863 59.78063222 -63.71321757 54.34963089 -47 47 C-46.10410156 46.60683594 -45.20820313 46.21367187 -44.28515625 45.80859375 C-41.5097171 44.56684748 -38.75344903 43.28969021 -36 42 C-35.1646875 41.62101562 -34.329375 41.24203125 -33.46875 40.8515625 C-23.64858789 36.2211696 -14.75034089 29.59181119 -7 22 C-6.24203125 21.27490234 -6.24203125 21.27490234 -5.46875 20.53515625 C-0.54970651 14.91543506 -0.61474178 7.12916962 0 0 Z " fill="#46A09D" transform="translate(330,90)"/>
<path d="M0 0 C0.78375 0.00451172 1.5675 0.00902344 2.375 0.01367188 C4.29170014 0.02535907 6.20836048 0.04329092 8.125 0.0625 C9.03917135 2.80501406 9.2704946 4.56999088 9.3359375 7.40625 C9.36429687 8.24027344 9.39265625 9.07429688 9.421875 9.93359375 C9.47395196 11.68598334 9.51822543 13.43862224 9.5546875 15.19140625 C9.585625 16.02542969 9.6165625 16.85945313 9.6484375 17.71875 C9.6781665 18.86053711 9.6781665 18.86053711 9.70849609 20.02539062 C10.22457 22.54949417 11.2436973 23.36926631 13.125 25.0625 C13.78873295 27.80592952 13.72759321 30.30778816 13.125 33.0625 C10.31747674 35.78494679 8.37039747 36.03288306 4.5 36.5 C1.125 36.0625 1.125 36.0625 -0.8125 34.5625 C-2.38765295 30.85625776 -2.19929691 28.08378169 -1.875 24.0625 C-1.215 23.4025 -0.555 22.7425 0.125 22.0625 C0.59159731 19.33780214 0.96099254 16.68070198 1.25 13.9375 C1.37955078 12.80634766 1.37955078 12.80634766 1.51171875 11.65234375 C1.72389261 9.78992873 1.92545763 7.92631069 2.125 6.0625 C-36.32219189 6.03076425 -36.32219189 6.03076425 -69.875 20.0625 C-70.0363058 23.12731021 -69.85650241 25.11799278 -68.875 28.0625 C-67.885 28.3925 -66.895 28.7225 -65.875 29.0625 C-66.535 29.3925 -67.195 29.7225 -67.875 30.0625 C-68.535 29.7325 -69.195 29.4025 -69.875 29.0625 C-69.875 29.7225 -69.875 30.3825 -69.875 31.0625 C-69.215 31.0625 -68.555 31.0625 -67.875 31.0625 C-68.205 32.3825 -68.535 33.7025 -68.875 35.0625 C-71.1875 35.75 -71.1875 35.75 -73.875 36.0625 C-77.33697826 33.93205184 -78.76838415 29.83373032 -79.875 26.0625 C-80.55525451 22.85396623 -80.7374623 20.2474098 -79.875 17.0625 C-72.42370438 6.78415456 -58.47705863 5.01738326 -46.875 3.0625 C-45.65425781 2.85496094 -44.43351562 2.64742188 -43.17578125 2.43359375 C-35.62665313 1.28638299 -28.30111295 0.87597422 -20.68408203 1.0480957 C-17.69048921 1.10960788 -14.89149297 1.06525978 -11.93359375 0.5703125 C-7.93262353 -0.09396097 -4.04661361 -0.04458134 0 0 Z " fill="#274A58" transform="translate(189.875,77.9375)"/>
<path d="M0 0 C-0.99 0.33 -1.98 0.66 -3 1 C-3 1.66 -3 2.32 -3 3 C-4.03125 3.144375 -5.0625 3.28875 -6.125 3.4375 C-8.40271569 3.76813615 -10.67698303 4.12963505 -12.9375 4.5625 C-16.67770112 5.09681445 -20.22340802 5.06511365 -24 5 C-27.27200299 11.54400598 -24.90904131 22.43478299 -24.54223633 29.62915039 C-23.84754224 44.15079222 -24.14858049 58.5429484 -24.8125 73.0625 C-24.85356873 74.01763489 -24.89463745 74.97276978 -24.93695068 75.95684814 C-25.05761963 78.69195197 -25.1920017 81.42598195 -25.33203125 84.16015625 C-25.36864365 84.97975327 -25.40525604 85.79935028 -25.44297791 86.64378357 C-25.68049882 90.8613696 -26.23292253 94.10590964 -28 98 C-28.16670824 100.92440074 -28.16670824 100.92440074 -28 103.9375 C-27.91119172 108.47782337 -28.40910156 111.72446043 -30 116 C-30.04022391 118.3329866 -30.04320247 120.66706666 -30 123 C-30.29369827 124.34262065 -30.6278958 125.67696283 -31 127 C-31.12375 128.0725 -31.2475 129.145 -31.375 130.25 C-31.87205097 133.23230583 -32.43732641 135.27422735 -33.5625 138 C-34.64954421 140.73061345 -35 142.16426022 -35 145.1875 C-35 154.18615047 -37.73557379 165.02106884 -42.08984375 172.99609375 C-43.27569032 175.24017292 -43.27569032 175.24017292 -43 179 C-40.96166576 177.7260411 -38.96147874 176.38938077 -37 175 C-37 174.34 -37 173.68 -37 173 C-36.34 172.773125 -35.68 172.54625 -35 172.3125 C-28.00195916 169.25085713 -21.82988615 164.82988615 -16.4375 159.4375 C-14.38305069 157.38305069 -12.36883834 155.66696031 -10 154 C-9.34 154.33 -8.68 154.66 -8 155 C-18.55078689 166.34045078 -33.07962567 180.02654189 -48 185 C-47.0513012 179.58243056 -45.83982314 174.32878917 -44.25 169.0625 C-42.15391403 161.89955959 -40.49701865 154.65873516 -38.875 147.375 C-38.62137695 146.24328369 -38.36775391 145.11156738 -38.10644531 143.94555664 C-36.50337999 136.6602918 -35.17545115 129.36510156 -34 122 C-33.75303758 120.58433156 -33.50449873 119.16893663 -33.25390625 117.75390625 C-28.70630096 90.9388276 -27.71907527 63.8949359 -27.75 36.75 C-27.75077545 35.57429443 -27.7515509 34.39858887 -27.75234985 33.18725586 C-27.7587504 29.84868654 -27.77492504 26.51037538 -27.796875 23.171875 C-27.80126083 22.15700012 -27.80564667 21.14212524 -27.81016541 20.09649658 C-27.81963699 19.17358826 -27.82910858 18.25067993 -27.83886719 17.29980469 C-27.84910919 16.08487335 -27.84910919 16.08487335 -27.85955811 14.84539795 C-27.799775 12.98308849 -27.799775 12.98308849 -29 12 C-29.07179964 10.48071962 -29.08392007 8.95832518 -29.0625 7.4375 C-29.05347656 6.61121094 -29.04445312 5.78492188 -29.03515625 4.93359375 C-29.02355469 4.29550781 -29.01195312 3.65742188 -29 3 C-27.67548828 2.94392578 -27.67548828 2.94392578 -26.32421875 2.88671875 C-19.30379878 2.5021415 -12.99011196 1.73836536 -6.3046875 -0.4765625 C-3.79762645 -1.04596281 -2.40361364 -0.83074204 0 0 Z " fill="#458D90" transform="translate(271,212)"/>
<path d="M0 0 C1.29744141 0.01353516 1.29744141 0.01353516 2.62109375 0.02734375 C3.26175781 0.03894531 3.90242188 0.05054688 4.5625 0.0625 C4.2325 1.0525 3.9025 2.0425 3.5625 3.0625 C4.5525 3.3925 5.5425 3.7225 6.5625 4.0625 C6.5625 5.3825 6.5625 6.7025 6.5625 8.0625 C3.09061707 10.37708862 0.46246869 10.84194431 -3.625 11.625 C-4.29756836 11.75575928 -4.97013672 11.88651855 -5.66308594 12.02124023 C-9.16216209 12.68799266 -12.64520407 13.25421762 -16.1875 13.625 C-19.57829418 13.83949787 -19.57829418 13.83949787 -22.4375 16.0625 C-25.97700857 16.51435216 -27.77076715 16.48359443 -30.8125 14.5625 C-33.26233134 10.79352871 -33.0034239 8.51915069 -32.4375 4.0625 C-29.97368183 1.28680611 -28.52839458 1.06892984 -24.79296875 0.8046875 C-23.4032451 0.83377781 -22.01377591 0.87851229 -20.625 0.9375 C-13.65521391 1.1600096 -6.93512405 -0.0950017 0 0 Z " fill="#49AAA6" transform="translate(248.4375,147.9375)"/>
<path d="M0 0 C1.6990169 2.0683684 2.89762624 3.55211478 3.5 6.1875 C3.665 6.785625 3.83 7.38375 4 8 C4.99 8.33 5.98 8.66 7 9 C7.680625 9.86625 8.36125 10.7325 9.0625 11.625 C15.12168292 19.18541331 24.5590881 23.61907044 33 28 C33 28.33 33 28.66 33 29 C30.36 29 27.72 29 25 29 C25.33 28.01 25.66 27.02 26 26 C23.25648576 26.99071348 21.21135401 27.81506524 19 29.75 C18.34 30.1625 17.68 30.575 17 31 C7.06184067 28.12712033 -0.0794206 17.92166908 -6 10 C-5.67 9.34 -5.34 8.68 -5 8 C-3.02 8 -1.04 8 1 8 C0.67 5.36 0.34 2.72 0 0 Z " fill="#3A7B80" transform="translate(88,104)"/>
<path d="M0 0 C2.97 0.495 2.97 0.495 6 1 C6.07476562 1.60585937 6.14953125 2.21171875 6.2265625 2.8359375 C7.27784372 5.77740112 8.622971 6.24453238 11.375 7.625 C14.05087112 8.99344224 16.49008455 10.32672304 19 12 C20.92249447 12.54005913 20.92249447 12.54005913 23.01171875 12.8515625 C23.76904297 12.98046875 24.52636719 13.109375 25.30664062 13.2421875 C26.48516602 13.43167969 26.48516602 13.43167969 27.6875 13.625 C28.48478516 13.7590625 29.28207031 13.893125 30.10351562 14.03125 C32.0679402 14.3606146 34.03383927 14.68116313 36 15 C36 15.99 36 16.98 36 18 C36.66 18 37.32 18 38 18 C37.96970703 18.63462158 37.93941406 19.26924316 37.90820312 19.9230957 C37.27027622 33.75506856 36.87744588 47.57743077 36.82275391 61.42367554 C36.81595483 62.96619545 36.80573852 64.50870433 36.79199219 66.05117798 C36.77400166 68.23735228 36.76983233 70.4231349 36.76953125 72.609375 C36.76542236 73.86717773 36.76131348 75.12498047 36.75708008 76.42089844 C37.01320671 80.19458335 37.87996961 83.39821518 39 87 C39.16015625 89.6171875 39.16015625 89.6171875 39.0625 91.875 C39.00893284 93.24911411 38.97934545 94.6249973 39 96 C39.33 96.33 39.66 96.66 40 97 C40.31428209 98.76056169 40.55224661 100.53507369 40.75 102.3125 C40.86859375 103.27800781 40.9871875 104.24351562 41.109375 105.23828125 C40.9810594 108.47825016 40.16228881 109.65380518 38 112 C34.23442829 89.16621411 33.81111836 66.02234743 33.8125 42.9375 C33.81114044 41.4327713 33.81114044 41.4327713 33.80975342 39.89764404 C33.81004786 37.02413629 33.81896097 34.15081934 33.83203125 31.27734375 C33.83383644 29.98232689 33.83383644 29.98232689 33.8356781 28.66114807 C33.86706055 24.64537489 34.00104193 20.91860609 35 17 C34.05125 17.061875 33.1025 17.12375 32.125 17.1875 C21.9146384 17.10565341 11.1923966 11.98896315 3.90625 4.98828125 C2.52915988 3.38708919 1.25041626 1.70195546 0 0 Z " fill="#3D767E" transform="translate(125,210)"/>
<path d="M0 0 C2.21454972 3.32182457 3.04618501 6.16421335 4.125 10 C4.47820312 11.2375 4.83140625 12.475 5.1953125 13.75 C6 17 6 17 6 20 C6.66 20 7.32 20 8 20 C9.07752999 32.99022265 5.40033031 43.44109312 -2.71459961 53.35107422 C-6.76920403 58.03336194 -10.97694627 62.52518983 -17.44921875 63.2890625 C-23.50691616 62.6025853 -28.53460496 56.89784456 -32.1875 52.3125 C-39.18006109 42.29243342 -43.15339994 32.30293266 -42 20 C-40.6875 17 -40.6875 17 -39 14 C-37.89225138 10.69671358 -36.93512316 7.35583205 -36 4 C-35.34 4.66 -34.68 5.32 -34 6 C-37 15 -37 15 -38.125 17.85546875 C-39.15243326 21.54780702 -38.99202483 24.38267596 -38.625 28.1875 C-38.51414063 29.39792969 -38.40328125 30.60835937 -38.2890625 31.85546875 C-38.19367188 32.89316406 -38.09828125 33.93085938 -38 35 C-38 35.99 -38 36.98 -38 38 C-37.34 38 -36.68 38 -36 38 C-35.67 40.31 -35.34 42.62 -35 45 C-34.01 45 -33.02 45 -32 45 C-32 46.32 -32 47.64 -32 49 C-31.34 49 -30.68 49 -30 49 C-29.34 50.98 -28.68 52.96 -28 55 C-26.35 55.33 -24.7 55.66 -23 56 C-23 56.99 -23 57.98 -23 59 C-20.1318773 59.64285509 -17.89786597 60.11507771 -15 60 C-11.13476092 57.54705982 -9.40798334 55.61197502 -6.875 51.8125 C-5 49 -5 49 -3.08984375 48.25 C0.06889562 46.36066056 1.01016699 43.47939462 2.3125 40.1875 C2.57885254 39.52548584 2.84520508 38.86347168 3.11962891 38.18139648 C5.51110568 31.66194176 5.26182305 25.80237338 4 19 C3.34 19 2.68 19 2 19 C2.04125 17.824375 2.0825 16.64875 2.125 15.4375 C2.13949207 11.3434908 1.20529962 7.91722376 0 4 C0 2.68 0 1.36 0 0 Z " fill="#4E9B9C" transform="translate(225,217)"/>
<path d="M0 0 C0.33 0 0.66 0 1 0 C1.00808685 0.61291397 1.01617371 1.22582794 1.02450562 1.85731506 C1.11205118 8.36525709 1.21157409 14.87294514 1.31738281 21.38061523 C1.35514919 23.79398254 1.39008199 26.20739622 1.421875 28.62084961 C1.71081234 50.30469413 3.19890022 71.62486938 6.17724609 93.10375977 C6.50736003 95.49071828 6.82637589 97.878999 7.14453125 100.26757812 C7.35613231 101.82300367 7.56834748 103.37834582 7.78125 104.93359375 C7.87402222 105.62948105 7.96679443 106.32536835 8.06237793 107.04234314 C8.55152318 110.52623855 9.19221131 113.91333487 10.06835938 117.31665039 C10.85649702 120.43264425 11.1985362 122.82342086 11 126 C10.34 126 9.68 126 9 126 C8.505 123.03 8.505 123.03 8 120 C7.67 120 7.34 120 7 120 C6.79503906 118.81921875 6.59007812 117.6384375 6.37890625 116.421875 C6.10684695 114.86457003 5.83470732 113.3072791 5.5625 111.75 C5.42779297 110.97269531 5.29308594 110.19539063 5.15429688 109.39453125 C5.02216797 108.64042969 4.89003906 107.88632812 4.75390625 107.109375 C4.63345947 106.41811523 4.5130127 105.72685547 4.38891602 105.01464844 C4.02297372 102.98705074 4.02297372 102.98705074 3.453125 100.97607422 C2.85484435 98.36697747 2.9889954 95.83020614 3.02294922 93.16699219 C2.98536522 89.61810323 2.52735194 86.13941257 2.0625 82.625 C1.97548828 81.91472656 1.88847656 81.20445312 1.79882812 80.47265625 C1.33746209 76.61441213 1.33746209 76.61441213 0 73 C-0.14927993 70.96489549 -0.23726996 68.92519238 -0.29711914 66.88549805 C-0.33708511 65.60043869 -0.37705109 64.31537933 -0.41822815 62.99137878 C-0.45732456 61.58149544 -0.49629755 60.17160867 -0.53515625 58.76171875 C-0.57818035 57.3192277 -0.62159698 55.87674831 -0.66539001 54.4342804 C-0.77971597 50.6304954 -0.88827908 46.82656591 -0.99578857 43.02258301 C-1.08426696 39.92559659 -1.17676967 36.82873674 -1.26950932 33.73187542 C-1.3802056 30.03352841 -1.48922525 26.33513281 -1.59765625 22.63671875 C-1.61828691 21.93333563 -1.63891758 21.22995251 -1.66017342 20.50525475 C-1.71841969 18.50442374 -1.77537408 16.50355525 -1.83227539 14.50268555 C-1.86478897 13.365103 -1.89730255 12.22752045 -1.93080139 11.0554657 C-1.95363693 10.04716202 -1.97647247 9.03885834 -2 8 C-2.04470932 7.10275711 -2.08941864 6.20551422 -2.13548279 5.28108215 C-2 3 -2 3 0 0 Z " fill="#488C90" transform="translate(171,231)"/>
<path d="M0 0 C0.33 0 0.66 0 1 0 C1.26053563 4.16857009 1.111446 7.12647721 -0.5 11 C-1.6298465 13.74615469 -2 15.12938032 -2 18.1875 C-2 27.18615047 -4.73557379 38.02106884 -9.08984375 45.99609375 C-10.27569032 48.24017292 -10.27569032 48.24017292 -10 52 C-7.96166576 50.7260411 -5.96147874 49.38938077 -4 48 C-4 47.34 -4 46.68 -4 46 C-3.01 45.6596875 -3.01 45.6596875 -2 45.3125 C4.99804084 42.25085713 11.17011385 37.82988615 16.5625 32.4375 C18.61694931 30.38305069 20.63116166 28.66696031 23 27 C23.66 27.33 24.32 27.66 25 28 C14.44921311 39.34045078 -0.07962567 53.02654189 -15 58 C-14.0513012 52.58243056 -12.83982314 47.32878917 -11.25 42.0625 C-8.76544929 33.65038824 -6.98779473 25.08866403 -5.19433594 16.50610352 C-3.94712706 10.67869951 -2.62894327 5.35929977 0 0 Z " fill="#499395" transform="translate(238,339)"/>
<path d="M0 0 C-4.75890529 2.37945265 -7.54838765 3.10095578 -13 3 C-12.83846436 4.30364502 -12.67692871 5.60729004 -12.51049805 6.95043945 C-11.99857098 11.57900747 -11.83950971 16.13944069 -11.83203125 20.79296875 C-11.82779648 21.60892517 -11.82356171 22.42488159 -11.81919861 23.26556396 C-11.80934339 25.90626217 -11.80927791 28.54678667 -11.8125 31.1875 C-11.81310425 32.09605743 -11.8137085 33.00461487 -11.81433105 33.94070435 C-11.85689412 57.60135619 -13.21534669 80.87568947 -17 104.26953125 C-17.2165625 105.60914917 -17.2165625 105.60914917 -17.4375 106.97583008 C-17.623125 107.64380615 -17.80875 108.31178223 -18 109 C-18.99 109.495 -18.99 109.495 -20 110 C-19.85915204 108.20793453 -19.71216299 106.41635083 -19.5625 104.625 C-19.48128906 103.62726563 -19.40007812 102.62953125 -19.31640625 101.6015625 C-19 99 -19 99 -18 97 C-17.85910218 95.27273078 -17.77417312 93.54071368 -17.71875 91.80859375 C-17.68136719 90.78185547 -17.64398438 89.75511719 -17.60546875 88.69726562 C-17.53503 86.52018637 -17.46471795 84.34310302 -17.39453125 82.16601562 C-17.33845703 80.6278418 -17.33845703 80.6278418 -17.28125 79.05859375 C-17.25095703 78.11298584 -17.22066406 77.16737793 -17.18945312 76.19311523 C-17 74 -17 74 -16 73 C-15.76336531 70.38299566 -15.595643 67.79132434 -15.47265625 65.16796875 C-15.43133072 64.33307419 -15.39000519 63.49817963 -15.34742737 62.63798523 C-14.79101693 50.53706584 -14.63815987 38.42334665 -14.4375 26.3125 C-14.39418292 23.84569779 -14.35056509 21.37890084 -14.30664062 18.91210938 C-14.20096795 12.94146233 -14.09897679 6.97076161 -14 1 C-12.56530873 0.65257247 -11.12873347 0.31291857 -9.69140625 -0.0234375 C-8.89162354 -0.21341309 -8.09184082 -0.40338867 -7.26782227 -0.59912109 C-4.60671194 -1.06952083 -2.56709447 -0.82809499 0 0 Z " fill="#3F7D84" transform="translate(269,224)"/>
<path d="M0 0 C3.68700366 0.21068592 5.00512471 1.0045553 7.8125 3.5 C10.38184064 6.85554266 10.59846573 9.80030701 10.375 13.94140625 C9.89454285 16.5789158 8.9289081 18.15146307 7 20 C6.67 19.34 6.34 18.68 6 18 C5.46375 18.94875 4.9275 19.8975 4.375 20.875 C1.7207791 24.36739592 0.19162145 25.04735876 -4 26 C-4 25.01 -4 24.02 -4 23 C-4.99 23.66 -5.98 24.32 -7 25 C-7.99 25 -8.98 25 -10 25 C-10 25.66 -10 26.32 -10 27 C-12.70879335 28.35439668 -15.00933268 28.06501451 -18 28 C-17.401875 27.71125 -16.80375 27.4225 -16.1875 27.125 C-13.80672208 25.95257974 -13.80672208 25.95257974 -11 24 C-10.01 24 -9.02 24 -8 24 C-8 23.34 -8 22.68 -8 22 C-6.28515625 20.52734375 -6.28515625 20.52734375 -4.0625 18.9375 C-1.41985962 17.10094469 -1.41985962 17.10094469 1 15 C1.52813349 9.85868816 1.52813349 9.85868816 -1 5.5625 C-1.66 5.046875 -2.32 4.53125 -3 4 C-2.01 2.68 -1.02 1.36 0 0 Z M-1 19 C-1.33 19.99 -1.66 20.98 -2 22 C-1.34 22 -0.68 22 0 22 C-0.33 21.01 -0.66 20.02 -1 19 Z " fill="#2D5965" transform="translate(296,88)"/>
<path d="M0 0 C0.66 0.33 1.32 0.66 2 1 C0.62161137 3.96883705 -1.01508645 6.40508863 -3 9 C-3.46019531 9.61359375 -3.92039062 10.2271875 -4.39453125 10.859375 C-5.3967188 12.19562506 -6.3993678 13.5315291 -7.40234375 14.8671875 C-8.41874065 16.22404009 -9.43210855 17.58317089 -10.44140625 18.9453125 C-13.90079439 23.60181861 -17.46737875 28.16130906 -21.125 32.6640625 C-22.23876765 34.05163137 -23.33130259 35.45742346 -24.375 36.8984375 C-27.50105984 41.11450505 -30.02882027 42.02525888 -35 43 C-36.62492116 40.44655247 -37.48427181 38.93568357 -38 36 C-37.26582071 32.92343917 -36.19102708 30.09747721 -35.05078125 27.1484375 C-33.71012741 23.13145981 -33.47481874 19.38970163 -33.37109375 15.1796875 C-33.24863281 14.46039063 -33.12617188 13.74109375 -33 13 C-32.01 12.34 -31.02 11.68 -30 11 C-31.16998942 20.69597613 -32.46142753 30.3541192 -34 40 C-31.35011735 37.37906078 -28.70579857 34.75257802 -26.0625 32.125 C-25.30775391 31.37863281 -24.55300781 30.63226563 -23.77539062 29.86328125 C-22.69741211 28.79013672 -22.69741211 28.79013672 -21.59765625 27.6953125 C-20.93258057 27.03547363 -20.26750488 26.37563477 -19.58227539 25.69580078 C-17.9186289 24.07326068 -17.9186289 24.07326068 -17 22 C-16.34 22 -15.68 22 -15 22 C-14.76023437 21.46117187 -14.52046875 20.92234375 -14.2734375 20.3671875 C-12.66516211 17.37757129 -10.68888398 14.81970566 -8.625 12.125 C-5.59570405 8.16361298 -2.7268813 4.17125678 0 0 Z " fill="#45838A" transform="translate(280,325)"/>
<path d="M0 0 C2.19880735 3.29821102 3.12797209 6.45577429 4.1640625 10.22265625 C4.36099701 10.9239415 4.55793152 11.62522675 4.76083374 12.34776306 C5.17512574 13.82724353 5.58682151 15.30745313 5.99609375 16.78833008 C6.62409001 19.05920942 7.26058052 21.32757608 7.8984375 23.59570312 C8.2999808 25.03371419 8.70103918 26.47186076 9.1015625 27.91015625 C9.2921524 28.59038345 9.48274231 29.27061066 9.67910767 29.97145081 C11 34.76769655 11 34.76769655 11 37 C6.78141053 35.49110377 3.11807875 33.36217059 -0.625 30.9375 C-1.23746582 30.54191895 -1.84993164 30.14633789 -2.48095703 29.73876953 C-8.32946815 25.89398538 -13.70550254 21.57518185 -19 17 C-19.76441406 16.34644531 -20.52882812 15.69289063 -21.31640625 15.01953125 C-24.66702604 12.12553368 -27.93132048 9.19654116 -31 6 C-30.67 5.34 -30.34 4.68 -30 4 C-26.48200238 5.95444312 -23.60791131 7.90914215 -21 11 C-21 11.99 -21 12.98 -21 14 C-20.071875 14.28875 -19.14375 14.5775 -18.1875 14.875 C-15 16 -15 16 -12 18 C-12 18.99 -12 19.98 -12 21 C-11.01 21 -10.02 21 -9 21 C-8.67 21.66 -8.34 22.32 -8 23 C-6.11736119 23.90343684 -6.11736119 23.90343684 -3.9375 24.625 C-3.20402344 24.88539063 -2.47054687 25.14578125 -1.71484375 25.4140625 C-0.86599609 25.70410156 -0.86599609 25.70410156 0 26 C0 26.99 0 27.98 0 29 C1.65 29 3.3 29 5 29 C4.71848084 26.87363187 4.42446737 24.74891472 4.125 22.625 C3.96257812 21.44164062 3.80015625 20.25828125 3.6328125 19.0390625 C3.2697415 15.90433341 3.2697415 15.90433341 1 14 C-0.3836233 9.43404309 -0.09258472 4.72182063 0 0 Z " fill="#499094" transform="translate(182,360)"/>
<path d="M0 0 C2.9375 1.625 2.9375 1.625 5 4 C5.625 6.9375 5.625 6.9375 5 10 C2.9375 12.875 2.9375 12.875 0 15 C-4.44143734 15.53603554 -6.24952518 15.50031654 -10 13 C-10.96076482 10.01990313 -11.1717896 7.11992075 -11 4 C-8.29185797 -0.62640931 -5.06414829 -0.71075766 0 0 Z " fill="#4EB7AF" transform="translate(80,197)"/>
<path d="M0 0 C2.4375 1.5 2.4375 1.5 4 4 C4.64430945 7.02096035 4.454447 8.81887097 4 12 C1.19247674 14.72244679 -0.75460253 14.97038306 -4.625 15.4375 C-8 15 -8 15 -9.9375 13.5 C-11.5500772 9.7057007 -11.45833942 7.12505479 -11 3 C-8.06403859 -0.7580306 -4.50318499 -0.56289812 0 0 Z " fill="#53A1A3" transform="translate(199,99)"/>
<path d="M0 0 C2.9375 2.0625 2.9375 2.0625 5 5 C5.625 8.625 5.625 8.625 5 12 C2.1626698 14.66537079 0.24085939 14.97508351 -3.625 15.375 C-7 15 -7 15 -8.6875 13.7578125 C-10.34559833 11.53714509 -10.40249457 10.24945711 -10.375 7.5 C-10.38273438 6.7265625 -10.39046875 5.953125 -10.3984375 5.15625 C-9.3392856 -0.5756309 -5.08502977 -0.70138342 0 0 Z " fill="#4CA7A5" transform="translate(198,50)"/>
<path d="M0 0 C3 2.0625 3 2.0625 5 5 C5.06584389 8.81894541 4.85572029 10.97971812 2.375 13.9375 C-0.96395831 15.43124451 -3.38824393 15.45967805 -7 15 C-8.9375 13.5625 -8.9375 13.5625 -10 11 C-10.38422467 7.95326075 -10.59528094 5.02309339 -10 2 C-6.24952518 -0.50031654 -4.44143734 -0.53603554 0 0 Z " fill="#4CB1AC" transform="translate(342,197)"/>
<path d="M0 0 C1.9375 1.1875 1.9375 1.1875 3 3 C3.41616519 6.25996064 3.2766188 8.34303035 2 11.375 C-0.70631432 13.57388038 -2.66681117 13.3604746 -6.0625 13.23828125 C-8 13 -8 13 -11 12 C-12.60346661 8.79306678 -12.61607231 5.46983254 -12 2 C-8.26559019 -1.73440981 -4.8967014 -1.26951518 0 0 Z " fill="#49B8B0" transform="translate(228,100)"/>
<path d="M0 0 C0.8125 1.6875 0.8125 1.6875 1 4 C-1.125 6.5 -1.125 6.5 -4 9 C-4.721875 9.66 -5.44375 10.32 -6.1875 11 C-10.20152605 13.85441853 -14.55738573 15.89514975 -19 18 C-19.33 16.68 -19.66 15.36 -20 14 C-20.66 14 -21.32 14 -22 14 C-22.763125 13.979375 -23.52625 13.95875 -24.3125 13.9375 C-26.99880362 13.99997218 -29.37719312 14.44783013 -32 15 C-32.99 15 -33.98 15 -35 15 C-35 15.66 -35 16.32 -35 17 C-37.97 17 -40.94 17 -44 17 C-44 16.67 -44 16.34 -44 16 C-25.17995444 10.44419134 -25.17995444 10.44419134 -16 10 C-16 9.34 -16 8.68 -16 8 C-14.03533587 6.93224776 -12.03144641 5.93446535 -10 5 C-9.34 5.33 -8.68 5.66 -8 6 C-8.66 6.99 -9.32 7.98 -10 9 C-5.21097855 6.56030983 -2.37277818 5.02470674 0 0 Z M-7 2 C-6.67 2.99 -6.34 3.98 -6 5 C-6.66 4.67 -7.32 4.34 -8 4 C-7.67 3.34 -7.34 2.68 -7 2 Z M-31 15 C-29 16 -29 16 -29 16 Z " fill="#3A727B" transform="translate(302,105)"/>
<path d="M0 0 C0.66 0.33 1.32 0.66 2 1 C2 1.66 2 2.32 2 3 C2.66 3 3.32 3 4 3 C4 3.66 4 4.32 4 5 C4.66 5.33 5.32 5.66 6 6 C5.34 7.65 4.68 9.3 4 11 C3.01 11 2.02 11 1 11 C1 11.66 1 12.32 1 13 C-3.21878192 13.19622241 -6.17010894 12.80230168 -10 11 C-10.48541424 3.59743291 -10.48541424 3.59743291 -8.375 1 C-5.4070908 -0.24964598 -3.19200721 -0.27756584 0 0 Z " fill="#4DB6B0" transform="translate(226,149)"/>
<path d="M0 0 C3.77545388 1.09068668 6.47043472 1.9083091 9 5 C8.05125 4.979375 7.1025 4.95875 6.125 4.9375 C3.09333717 4.77448174 3.09333717 4.77448174 1 6 C1.33 4.68 1.66 3.36 2 2 C1.34 2 0.68 2 0 2 C0 1.34 0 0.68 0 0 Z M-3 5 C3.48489426 6.46827795 3.48489426 6.46827795 5.9375 9 C7 11 7 11 7 13 C10.96 13.33 14.92 13.66 19 14 C19 14.66 19 15.32 19 16 C19.66 16 20.32 16 21 16 C21 16.66 21 17.32 21 18 C21.92941406 18.18175781 22.85882813 18.36351563 23.81640625 18.55078125 C30.22725659 19.8543431 36.11943042 21.12227446 42 24 C43.6642135 24.67276716 45.32986582 25.34206835 47 26 C42.95280233 27.64885831 40.23659335 26.2200117 36.3125 24.6875 C32.45369477 23.21705459 28.71209611 21.81277053 24.625 21.125 C14.77300263 19.16200804 3.86746454 14.38252438 -3 7 C-3 6.34 -3 5.68 -3 5 Z " fill="#3C737B" transform="translate(120,107)"/>
<path d="M0 0 C4.29 0 8.58 0 13 0 C13 27.72 13 55.44 13 84 C12.67 84 12.34 84 12 84 C11.27272706 74.4814807 10.83635351 65.01702738 10.73963928 55.46800995 C10.7180898 53.35720708 10.69114106 51.2465275 10.66296387 49.13580322 C10.59418403 43.91166668 10.53347717 38.68744488 10.47393799 33.4631958 C10.42297299 29.00619404 10.36824968 24.54927226 10.30812073 20.09238434 C10.28166272 18.01675299 10.26080603 15.94111309 10.2401123 13.86541748 C10.22339478 12.61271057 10.20667725 11.36000366 10.18945312 10.06933594 C10.17692505 8.96652283 10.16439697 7.86370972 10.15148926 6.72747803 C10.11474418 3.9056816 10.11474418 3.9056816 9 1 C6.36 1.33 3.72 1.66 1 2 C0.67 1.34 0.34 0.68 0 0 Z " fill="#1D4351" transform="translate(161,215)"/>
<path d="M0 0 C0.99 0.495 0.99 0.495 2 1 C2.30859375 3.625 2.30859375 3.625 2.4375 7 C2.74305828 11.93717857 3.43084432 15.95045577 5.17578125 20.546875 C6.61189218 24.82117674 7.37648037 29.25109609 8.25390625 33.66796875 C8.97178683 36.87400085 9.90559296 39.90465992 11 43 C10.34 43 9.68 43 9 43 C9 43.66 9 44.32 9 45 C6.69 45 4.38 45 2 45 C2 43.68 2 42.36 2 41 C3.32 41.66 4.64 42.32 6 43 C4.99672599 36.93782143 3.98276587 30.87796487 2.9296875 24.82421875 C2.40234375 21.75585938 2.40234375 21.75585938 1.875 18.6875 C1.69324219 17.65560547 1.51148438 16.62371094 1.32421875 15.56054688 C0.42697875 10.2951648 -0.22602642 5.34175761 0 0 Z " fill="#43868B" transform="translate(164,322)"/>
<path d="M0 0 C0.66 0.66 1.32 1.32 2 2 C-1 11 -1 11 -2.125 13.85546875 C-3.15243326 17.54780702 -2.99202483 20.38267596 -2.625 24.1875 C-2.51414063 25.39792969 -2.40328125 26.60835937 -2.2890625 27.85546875 C-2.19367188 28.89316406 -2.09828125 29.93085938 -2 31 C-2 31.99 -2 32.98 -2 34 C-1.34 34 -0.68 34 0 34 C0.33 36.31 0.66 38.62 1 41 C1.99 41 2.98 41 4 41 C3.505 43.475 3.505 43.475 3 46 C-4.20879206 38.01883736 -6.33218247 28.88951725 -6.22265625 18.375 C-5.91519379 15.0954004 -4.60666341 12.8562905 -3 10 C-1.89225138 6.69671358 -0.93512316 3.35583205 0 0 Z " fill="#4B9296" transform="translate(189,221)"/>
<path d="M0 0 C0.99 0.33 1.98 0.66 3 1 C3 2.65 3 4.3 3 6 C3.66 6.33 4.32 6.66 5 7 C6.20883462 11.43239362 5.94524355 13.89337472 4 18 C3.85691406 18.61746094 3.71382812 19.23492187 3.56640625 19.87109375 C1.72557082 26.79009588 -2.29190457 31.88486143 -8 36 C-9.65 35.34 -11.3 34.68 -13 34 C-13.33 34.66 -13.66 35.32 -14 36 C-14 34.02 -14 32.04 -14 30 C-12.515 30.99 -12.515 30.99 -11 32 C-8.37468476 32.16713569 -8.37468476 32.16713569 -6 32 C-5.7525 31.46375 -5.505 30.9275 -5.25 30.375 C-4 28 -4 28 -2 25.1875 C1.92256289 18.93591539 3.12728949 12.13111076 1.546875 4.9375 C1.07836607 3.2776398 0.54540228 1.63620685 0 0 Z " fill="#489295" transform="translate(217,232)"/>
<path d="M0 0 C0.66 0.33 1.32 0.66 2 1 C0.02 1.99 0.02 1.99 -2 3 C-2 2.34 -2 1.68 -2 1 C-1.34 0.67 -0.68 0.34 0 0 Z M-4 3 C-3.34 3.33 -2.68 3.66 -2 4 C-2.93972656 4.96099609 -2.93972656 4.96099609 -3.8984375 5.94140625 C-9.46579289 11.83367039 -13 15.68537621 -13 24 C-12.34 24.33 -11.68 24.66 -11 25 C-11.33 25.99 -11.66 26.98 -12 28 C-12.06665376 29.39439664 -12.08538199 30.79169875 -12.0625 32.1875 C-12.041875 33.445625 -12.02125 34.70375 -12 36 C-11.34 36 -10.68 36 -10 36 C-10.33 36.99 -10.66 37.98 -11 39 C-11.99 38.67 -12.98 38.34 -14 38 C-16.42143285 27.64405058 -17.48033904 20.41933272 -12 11 C-11.34 11 -10.68 11 -10 11 C-9.938125 10.4225 -9.87625 9.845 -9.8125 9.25 C-8.67972699 6.11309013 -6.65802405 4.90832496 -4 3 Z " fill="#233B4C" transform="translate(93,73)"/>
<path d="M0 0 C0.66 0.33 1.32 0.66 2 1 C0.62161137 3.96883705 -1.01508645 6.40508863 -3 9 C-3.46019531 9.61359375 -3.92039062 10.2271875 -4.39453125 10.859375 C-4.86246094 11.48328125 -5.33039063 12.1071875 -5.8125 12.75 C-6.33328125 13.44480469 -6.8540625 14.13960938 -7.390625 14.85546875 C-8.44103404 16.2551643 -9.49304566 17.65365902 -10.546875 19.05078125 C-11.29710937 20.04658203 -11.29710937 20.04658203 -12.0625 21.0625 C-12.55878906 21.71734375 -13.05507813 22.3721875 -13.56640625 23.046875 C-14.50422891 24.32456254 -15.40984996 25.62668189 -16.27734375 26.953125 C-18.97423586 31.05446891 -21.19996468 33.29332077 -26 35 C-26.66 34.67 -27.32 34.34 -28 34 C-27.28972656 33.30132812 -26.57945312 32.60265625 -25.84765625 31.8828125 C-24.92855469 30.97273438 -24.00945312 30.06265625 -23.0625 29.125 C-21.68771484 27.76761719 -21.68771484 27.76761719 -20.28515625 26.3828125 C-17.98812373 24.22317745 -17.98812373 24.22317745 -17 22 C-16.34 22 -15.68 22 -15 22 C-14.76023437 21.46117187 -14.52046875 20.92234375 -14.2734375 20.3671875 C-12.66516211 17.37757129 -10.68888398 14.81970566 -8.625 12.125 C-5.59570405 8.16361298 -2.7268813 4.17125678 0 0 Z " fill="#3B6E79" transform="translate(280,325)"/>
<path d="M0 0 C1.94723595 2.92085393 2.55175352 4.59332678 3 8 C2.67 8.33 2.34 8.66 2 9 C2.12375 9.845625 2.2475 10.69125 2.375 11.5625 C1.87770198 16.12106515 -0.10910717 17.80423457 -3.19921875 21.04296875 C-5.20608672 23.10230804 -5.20608672 23.10230804 -7.0625 26.3125 C-9.38076278 29.52815483 -11.42117294 30.39317969 -15 32 C-15.845625 32.70125 -16.69125 33.4025 -17.5625 34.125 C-20.14142394 36.10878765 -21.80731196 36.63512137 -25 37 C-22.8962399 34.7988436 -20.7122159 32.97506874 -18.25 31.1875 C-14.34451727 28.27809452 -10.52365339 25.36895641 -7 22 C-6.51273437 21.5359375 -6.02546875 21.071875 -5.5234375 20.59375 C-0.57619983 14.92323197 -0.61946169 7.18390648 0 0 Z " fill="#345968" transform="translate(330,90)"/>
<path d="M0 0 C0.66 0 1.32 0 2 0 C1.57850302 6.88445075 -0.58145321 12.89171824 -2.94140625 19.31640625 C-4.60187974 25.09436381 -4.5477047 29.6252835 -2.125 35.125 C-1.60292969 36.33542969 -1.60292969 36.33542969 -1.0703125 37.5703125 C-0.71710938 38.37210938 -0.36390625 39.17390625 0 40 C0.6722584 41.66441908 1.3405101 43.33048052 2 45 C0.125 44.8125 0.125 44.8125 -2 44 C-4.09242143 40.3382625 -4.19324053 37.15467129 -4 33 C-4.66 33 -5.32 33 -6 33 C-6.05397335 30.5622037 -6.09365616 28.12560315 -6.125 25.6875 C-6.14175781 24.99720703 -6.15851563 24.30691406 -6.17578125 23.59570312 C-6.21217794 19.82864604 -6.14378864 18.21568296 -4 15 C-3.31744011 12.67126625 -2.64949225 10.33817209 -2 8 C-1.67 7.67 -1.34 7.34 -1 7 C-0.63239269 4.67182036 -0.29758419 2.3381615 0 0 Z " fill="#3A6F78" transform="translate(201,217)"/>
<path d="M0 0 C2 2 2 2 2.23046875 3.84765625 C1.94116755 18.75981804 1.94116755 18.75981804 -2 25 C-2.40729228 27.32156597 -2.74438677 29.6568787 -3 32 C-3.59114614 34.95573071 -4.57631527 37.34245516 -6 40 C-7.03100507 36.78398284 -6.93389881 34.56193413 -6.2578125 31.26953125 C-6.07863281 30.38458984 -5.89945313 29.49964844 -5.71484375 28.58789062 C-5.52019531 27.67201172 -5.32554687 26.75613281 -5.125 25.8125 C-4.93808594 24.88501953 -4.75117188 23.95753906 -4.55859375 23.00195312 C-3.143822 16.143822 -3.143822 16.143822 -2 15 C-1.79000055 13.04583843 -1.63167366 11.08599701 -1.5 9.125 C-1.27652749 5.81281812 -1.05207935 3.15623804 0 0 Z " fill="#0B1D32" transform="translate(252,326)"/>
<path d="M0 0 C2.21454972 3.32182457 3.04618501 6.16421335 4.125 10 C4.47820312 11.2375 4.83140625 12.475 5.1953125 13.75 C6 17 6 17 6 20 C6.66 20 7.32 20 8 20 C8.69938 28.43141447 7.00603781 36.11189348 4 44 C3.01 44.495 3.01 44.495 2 45 C2.42215605 40.98951757 2.82533431 37.51429343 4.125 33.6875 C5.32281976 28.6395453 4.68235585 24.09922679 4 19 C3.34 19 2.68 19 2 19 C2.04125 17.824375 2.0825 16.64875 2.125 15.4375 C2.13949207 11.3434908 1.20529962 7.91722376 0 4 C0 2.68 0 1.36 0 0 Z " fill="#3B6F78" transform="translate(225,217)"/>
<path d="M0 0 C-4.75890529 2.37945265 -7.54838765 3.10095578 -13 3 C-12.83701416 4.28189209 -12.67402832 5.56378418 -12.50610352 6.88452148 C-11.95242192 11.88767648 -11.87181954 16.81848777 -11.90234375 21.84765625 C-11.9037587 22.74495956 -11.90517365 23.64226288 -11.90663147 24.5667572 C-11.9121749 27.39870714 -11.92471642 30.23057445 -11.9375 33.0625 C-11.94252233 34.99674364 -11.94708394 36.93098853 -11.95117188 38.86523438 C-11.96212571 43.57685417 -11.97935047 48.28841313 -12 53 C-12.33 53 -12.66 53 -13 53 C-13.14516371 48.00536457 -13.28743198 43.01065718 -13.42724609 38.01586914 C-13.47499152 36.32379031 -13.52346974 34.63173197 -13.57275391 32.93969727 C-13.88238013 22.28918711 -14.07209737 11.65538979 -14 1 C-4.46578631 -1.44057623 -4.46578631 -1.44057623 0 0 Z " fill="#396772" transform="translate(269,224)"/>
<path d="M0 0 C0.66 0.33 1.32 0.66 2 1 C1.67 3.31 1.34 5.62 1 8 C-0.98 8 -2.96 8 -5 8 C-5 8.66 -5 9.32 -5 10 C-6.32 9.34 -7.64 8.68 -9 8 C-9.25 5.1875 -9.25 5.1875 -9 2 C-6.09913676 -1.33062076 -4.07453675 -1.28669582 0 0 Z " fill="#49B8B1" transform="translate(199,103)"/>
<path d="M0 0 C0.66 0 1.32 0 2 0 C3.125 3.75 3.125 3.75 2 6 C2.66 6.33 3.32 6.66 4 7 C3.75334595 7.850177 3.75334595 7.850177 3.50170898 8.7175293 C2.98145601 11.08436389 2.91639369 13.10074576 2.97265625 15.51953125 C2.98490234 16.37740234 2.99714844 17.23527344 3.00976562 18.11914062 C3.04469411 19.90308053 3.08370257 21.68694559 3.12695312 23.47070312 C3.19400605 28.74421816 2.73582398 33.01035695 1 38 C0.67 38 0.34 38 0 38 C0 25.46 0 12.92 0 0 Z " fill="#0B2134" transform="translate(199,127)"/>
<path d="M0 0 C0.7109375 1.70703125 0.7109375 1.70703125 1 4 C-4.01172628 12.48476466 -12.39420112 21.19220693 -21 26 C-20.8125 23.625 -20.8125 23.625 -20 21 C-17.5 19.875 -17.5 19.875 -15 19 C-14.67 18.01 -14.34 17.02 -14 16 C-11.82023287 13.70550828 -9.56854881 11.52793818 -7.25 9.375 C-5.74340914 7.90383382 -5.74340914 7.90383382 -5 5 C-3.66666667 4.33333333 -2.33333333 3.66666667 -1 3 C-0.67 2.01 -0.34 1.02 0 0 Z " fill="#417A82" transform="translate(335,106)"/>
<path d="M0 0 C3.3 0 6.6 0 10 0 C10 0.33 10 0.66 10 1 C8.2984375 1.2165625 8.2984375 1.2165625 6.5625 1.4375 C3.19222799 1.61171478 3.19222799 1.61171478 2 3 C1.87642922 4.93223995 1.82205542 6.86893799 1.79467773 8.80493164 C1.77473251 10.04614273 1.75478729 11.28735382 1.73423767 12.56617737 C1.71725207 13.9308357 1.70037331 15.29549537 1.68359375 16.66015625 C1.66303064 18.04878875 1.64203434 19.4374149 1.62062073 20.82603455 C1.56533353 24.48714059 1.51595374 28.14830373 1.46777344 31.80950928 C1.41760679 35.54297997 1.36189554 39.27636738 1.30664062 43.00976562 C1.19897782 50.3397733 1.09755106 57.66985005 1 65 C0.67 65 0.34 65 0 65 C0 43.55 0 22.1 0 0 Z " fill="#2A3F51" transform="translate(300,222)"/>
<path d="M0 0 C0.33 0.66 0.66 1.32 1 2 C-0.1446875 2.0928125 -0.1446875 2.0928125 -1.3125 2.1875 C-4.11807463 2.74622767 -4.11807463 2.74622767 -5.5 5 C-6.34558318 6.69116636 -7.1865864 8.38469937 -8.01171875 10.0859375 C-11.54411576 16.96296291 -15.93788015 21.83353608 -22.8125 25.5 C-25 26 -25 26 -28 25 C-27.35933594 24.67128906 -26.71867187 24.34257812 -26.05859375 24.00390625 C-16.33270874 18.65539422 -11.61940905 12.31531578 -8 2 C-4.77208445 -0.1519437 -3.71599191 -0.20086443 0 0 Z " fill="#2C495A" transform="translate(297,185)"/>
<path d="M0 0 C2.79297711 0.44099639 5.31340243 1.10446748 8 2 C8 3.32 8 4.64 8 6 C7.34 6 6.68 6 6 6 C6 6.66 6 7.32 6 8 C4.875 9.625 4.875 9.625 3 11 C-0.1875 11.1875 -0.1875 11.1875 -3 11 C-2.67 9.02 -2.34 7.04 -2 5 C-1.34 5 -0.68 5 0 5 C-0.2784375 4.0409375 -0.2784375 4.0409375 -0.5625 3.0625 C-0.706875 2.381875 -0.85125 1.70125 -1 1 C-0.67 0.67 -0.34 0.34 0 0 Z " fill="#4AB7AE" transform="translate(76,200)"/>
<path d="M0 0 C6.45068082 0.62425943 12.6583573 1.66021633 19 3 C19 6.96 19 10.92 19 15 C15.37 14.67 11.74 14.34 8 14 C8 13.67 8 13.34 8 13 C10.97 13 13.94 13 17 13 C16.67 10.36 16.34 7.72 16 5 C11.93631321 4.22596442 8.13574827 3.9015298 4 4 C4 3.34 4 2.68 4 2 C2.68 1.67 1.36 1.34 0 1 C0 0.67 0 0.34 0 0 Z " fill="#071D31" transform="translate(168,135)"/>
<path d="M0 0 C0.33 0.99 0.66 1.98 1 3 C-4.78906441 7.22316994 -10.45649041 11.06235504 -17 14 C-18.23556641 14.55880859 -18.23556641 14.55880859 -19.49609375 15.12890625 C-21.65925762 16.09743672 -23.82679831 17.05425482 -26 18 C-26.33 17.34 -26.66 16.68 -27 16 C-25.2335343 14.9923048 -23.46166177 13.99408286 -21.6875 13 C-20.70136719 12.443125 -19.71523438 11.88625 -18.69921875 11.3125 C-16 10 -16 10 -13 10 C-12.67 9.01 -12.34 8.02 -12 7 C-9.68277541 5.57401563 -7.39656026 4.27143829 -5 3 C-3.33020674 2.00522955 -1.66220581 1.00739746 0 0 Z " fill="#47888D" transform="translate(313,129)"/>
<path d="M0 0 C-2.39302884 2.39302884 -3.22066868 2.33833515 -6.5078125 2.6328125 C-7.41273438 2.71660156 -8.31765625 2.80039063 -9.25 2.88671875 C-10.673125 3.00466797 -10.673125 3.00466797 -12.125 3.125 C-13.05054688 3.21136719 -13.97609375 3.29773438 -14.9296875 3.38671875 C-20.31171965 3.86562839 -25.59836155 4.0712304 -31 4 C-34.70679825 3.98111445 -34.70679825 3.98111445 -38 5 C-40.47648077 7.92043703 -40.47648077 7.92043703 -42 11 C-42.33 10.34 -42.66 9.68 -43 9 C-41.39758706 4.22929827 -41.39758706 4.22929827 -39 2 C-35.07630631 0.9719783 -31.22464166 1.06715439 -27.1875 1.125 C-25.05596753 1.10956343 -22.92445277 1.09140325 -20.79296875 1.0703125 C-19.78741943 1.06797607 -18.78187012 1.06563965 -17.74584961 1.06323242 C-11.75960258 0.92537895 -6.02536053 -0.10570808 0 0 Z " fill="#223749" transform="translate(256,178)"/>
<path d="M0 0 C3.77545388 1.09068668 6.47043472 1.9083091 9 5 C8.05125 4.979375 7.1025 4.95875 6.125 4.9375 C3.09333717 4.77448174 3.09333717 4.77448174 1 6 C1.33 4.68 1.66 3.36 2 2 C1.34 2 0.68 2 0 2 C0 1.34 0 0.68 0 0 Z M-3 5 C3.48489426 6.46827795 3.48489426 6.46827795 5.9375 9 C7 11 7 11 7 13 C9.64 13.33 12.28 13.66 15 14 C15.33 14.99 15.66 15.98 16 17 C9.24241799 16.64433779 3.21292239 12.80172408 -1.80078125 8.4296875 C-3 7 -3 7 -3 5 Z " fill="#376772" transform="translate(120,107)"/>
<path d="M0 0 C1.9375 1.1875 1.9375 1.1875 3 3 C3.375 6 3.375 6 3 9 C1.5 10.875 1.5 10.875 0 12 C0.33 9.69 0.66 7.38 1 5 C0.34 5 -0.32 5 -1 5 C-1.33 4.01 -1.66 3.02 -2 2 C-4.31 1.67 -6.62 1.34 -9 1 C-9 4.3 -9 7.6 -9 11 C-9.99 11.495 -9.99 11.495 -11 12 C-12.60346661 8.79306678 -12.61607231 5.46983254 -12 2 C-8.26559019 -1.73440981 -4.8967014 -1.26951518 0 0 Z " fill="#529B9F" transform="translate(228,100)"/>
<path d="M0 0 C3.4375 1.3125 3.4375 1.3125 7 3 C7.33 3.99 7.66 4.98 8 6 C8.66 6.33 9.32 6.66 10 7 C10 7.99 10 8.98 10 10 C10.928125 10.28875 11.85625 10.5775 12.8125 10.875 C16 12 16 12 19 14 C19 14.99 19 15.98 19 17 C19.99 17 20.98 17 22 17 C24.1875 19.5 24.1875 19.5 26 22 C21.97057699 22 20.86297489 20.51469952 17.8125 17.9375 C16.83796875 17.11765625 15.8634375 16.2978125 14.859375 15.453125 C13.91578125 14.64359375 12.9721875 13.8340625 12 13 C11.22140625 12.33484375 10.4428125 11.6696875 9.640625 10.984375 C2.49097473 4.80234657 2.49097473 4.80234657 0 2 C0 1.34 0 0.68 0 0 Z " fill="#448289" transform="translate(151,364)"/>
<path d="M0 0 C0.66 0.33 1.32 0.66 2 1 C1.0925 1.598125 0.185 2.19625 -0.75 2.8125 C-3.83586452 4.80913984 -3.83586452 4.80913984 -5.875 6.5625 C-8.53341231 8.36083774 -11.270354 9.30850806 -14.29296875 10.3515625 C-16.00513961 10.86849816 -16.00513961 10.86849816 -17 12 C-19.33297433 12.04092937 -21.66705225 12.04241723 -24 12 C-22.71762631 9.43525263 -21.73924525 9.28064526 -19.125 8.1875 C-14.50675232 6.21882391 -9.94347429 4.14920541 -5.3828125 2.05078125 C-3 1 -3 1 0 0 Z " fill="#3C7A81" transform="translate(310,125)"/>
<path d="M0 0 C-0.33 0.66 -0.66 1.32 -1 2 C-1.99 2 -2.98 2 -4 2 C-3.34 4.64 -2.68 7.28 -2 10 C-4.76276177 9.47731534 -7.3260876 8.89130413 -10 8 C-10 5.69 -10 3.38 -10 1 C-6.21812119 -0.83691257 -4.05431692 -1.15837626 0 0 Z " fill="#4CB9B0" transform="translate(227,152)"/>
<path d="M0 0 C0.66 0 1.32 0 2 0 C2.33 1.98 2.66 3.96 3 6 C9.7685324 6.10152799 16.30324864 6.03026944 23 5 C23 5.66 23 6.32 23 7 C17.9781656 8.97343652 13.44415968 9.4086274 8.125 9.625 C6.949375 9.68300781 6.949375 9.68300781 5.75 9.7421875 C3.83368633 9.83566622 1.91687681 9.91888495 0 10 C0 6.7 0 3.4 0 0 Z " fill="#478C90" transform="translate(221,127)"/>
<path d="M0 0 C2.97 0.495 2.97 0.495 6 1 C6.07476562 1.60585937 6.14953125 2.21171875 6.2265625 2.8359375 C7.27784372 5.77740112 8.622971 6.24453238 11.375 7.625 C14.05087112 8.99344224 16.49008455 10.32672304 19 12 C20.46715338 12.36476189 21.94883948 12.67390918 23.4375 12.9375 C26.96675104 13.65599573 29.33373031 14.44965508 32 17 C20.08896713 16.79463736 9.96732607 10.59831801 1.4765625 2.6015625 C0 1 0 1 0 0 Z " fill="#305966" transform="translate(125,210)"/>
<path d="M0 0 C2 3 2 3 1.625 5.1875 C1.41875 5.785625 1.2125 6.38375 1 7 C0.34 7 -0.32 7 -1 7 C-1.350625 8.258125 -1.70125 9.51625 -2.0625 10.8125 C-4.31259587 17.59508565 -7.96715787 24.97810525 -14 29 C-12.74772617 24.7681781 -11.18769121 21.50055444 -8.6875 17.875 C-4.96010031 12.20592139 -2.39702437 6.32946989 0 0 Z " fill="#2F5060" transform="translate(296,295)"/>
<path d="M0 0 C0.66 0.33 1.32 0.66 2 1 C-4.85543686 8.21345774 -11.72141306 14.4115535 -20 20 C-20.33 19.01 -20.66 18.02 -21 17 C-19.83333333 16.125 -18.66666667 15.25 -17.5 14.375 C-16.77167969 13.82714844 -16.04335937 13.27929688 -15.29296875 12.71484375 C-13.82268033 11.61525837 -12.3465816 10.52337488 -10.86328125 9.44140625 C-6.90321066 6.53735449 -3.36714747 3.57759419 0 0 Z " fill="#4B8B90" transform="translate(261,366)"/>
<path d="M0 0 C-0.99 0.33 -1.98 0.66 -3 1 C-3 1.66 -3 2.32 -3 3 C-4.03125 3.144375 -5.0625 3.28875 -6.125 3.4375 C-9.81945982 3.91823963 -9.81945982 3.91823963 -12.6875 4.625 C-17.83133946 5.20732145 -22.86746391 4.53982985 -28 4 C-28 6.64 -28 9.28 -28 12 C-28.33 12 -28.66 12 -29 12 C-29 9.03 -29 6.06 -29 3 C-28.11699219 2.96261719 -27.23398438 2.92523438 -26.32421875 2.88671875 C-19.30379878 2.5021415 -12.99011196 1.73836536 -6.3046875 -0.4765625 C-3.79762645 -1.04596281 -2.40361364 -0.83074204 0 0 Z " fill="#3B787D" transform="translate(271,212)"/>
<path d="M0 0 C1.67671657 3.14131092 2.21034877 5.10955975 2.0625 8.6875 C2.00842051 10.12413346 1.97958916 11.56249394 2 13 C2.33 13.33 2.66 13.66 3 14 C3.31428209 15.76056169 3.55224661 17.53507369 3.75 19.3125 C3.86859375 20.27800781 3.9871875 21.24351562 4.109375 22.23828125 C3.9810594 25.47825016 3.16228881 26.65380518 1 29 C0.04531742 22.62542652 -0.1202324 16.43938347 -0.0625 10 C-0.05798828 9.03449219 -0.05347656 8.06898438 -0.04882812 7.07421875 C-0.03715417 4.71607911 -0.02078021 2.35807398 0 0 Z " fill="#428489" transform="translate(162,293)"/>
<path d="M0 0 C4.21752359 4.21752359 3.18288613 11.46840081 3.1875 17.125 C3.19974609 17.92292969 3.21199219 18.72085938 3.22460938 19.54296875 C3.24258274 26.72033354 3.24258274 26.72033354 1 30 C0.0232751 19.97112823 -0.10849626 10.06604235 0 0 Z " fill="#315261" transform="translate(202,187)"/>
<path d="M0 0 C0.99 0.495 0.99 0.495 2 1 C2.33 8.59 2.66 16.18 3 24 C2.01 24 1.02 24 0 24 C0 16.08 0 8.16 0 0 Z " fill="#315563" transform="translate(222,193)"/>
<path d="M0 0 C0.33 0 0.66 0 1 0 C0.99476318 0.76666992 0.98952637 1.53333984 0.98413086 2.32324219 C0.96333636 5.79881978 0.95033191 9.27438427 0.9375 12.75 C0.92912109 13.9565625 0.92074219 15.163125 0.91210938 16.40625 C0.90727539 18.14648438 0.90727539 18.14648438 0.90234375 19.921875 C0.89448853 21.52434082 0.89448853 21.52434082 0.88647461 23.15917969 C0.88767356 25.93097586 0.88767356 25.93097586 1.62719727 28.23925781 C1.75022217 28.82030273 1.87324707 29.40134766 2 30 C0.0625 32.25 0.0625 32.25 -2 34 C-1.42624998 22.65928158 -0.79580276 11.3274903 0 0 Z " fill="#3B727B" transform="translate(243,277)"/>
<path d="M0 0 C-4.31494358 2.87662906 -8.66652523 2.84442794 -13.75 3.4375 C-17.13472745 3.79755298 -17.13472745 3.79755298 -20 6 C-25.30875576 6.55299539 -25.30875576 6.55299539 -27.875 4.5 C-28.24625 4.005 -28.6175 3.51 -29 3 C-25.06329512 1.68776504 -22.87511856 2.75703744 -19 4 C-19 3.34 -19 2.68 -19 2 C-16.0837732 1.0279244 -13.67442813 0.70066982 -10.625 0.4375 C-9.68914062 0.35371094 -8.75328125 0.26992187 -7.7890625 0.18359375 C-5.18226956 0.01199814 -2.6113921 -0.0332359 0 0 Z " fill="#4D999B" transform="translate(246,158)"/>
<path d="M0 0 C0.66 0 1.32 0 2 0 C2.3715709 4.66454186 2.69889411 9.33039068 3 14 C3.06832031 14.91007813 3.13664063 15.82015625 3.20703125 16.7578125 C3.38764205 20.70449298 3.18934061 22.71007219 1 26.0625 C0.34 26.701875 -0.32 27.34125 -1 28 C-0.9278125 27.40316406 -0.855625 26.80632812 -0.78125 26.19140625 C0.1536457 17.45272839 0.09258332 8.77484168 0 0 Z " fill="#335665" transform="translate(191,193)"/>
<path d="M0 0 C0 0.66 0 1.32 0 2 C-0.56589844 2.21914062 -1.13179687 2.43828125 -1.71484375 2.6640625 C-3.97064641 3.63933043 -5.98235613 4.59234148 -8 6 C-9.13478935 9.12133744 -9.13478935 9.12133744 -9 12 C-9.66 11.67 -10.32 11.34 -11 11 C-11.48396854 3.61947973 -11.48396854 3.61947973 -9.4375 1 C-6.2014503 -0.32761013 -3.46093134 -0.19966912 0 0 Z " fill="#54A6A8" transform="translate(199,99)"/>
<path d="M0 0 C0.66 0.66 1.32 1.32 2 2 C1.54166667 3.375 1.08333333 4.75 0.625 6.125 C0.35042969 6.95257813 0.07585937 7.78015625 -0.20703125 8.6328125 C-0.80830086 10.42773558 -1.43054279 12.21565024 -2.0625 14 C-3.29653533 17.94891305 -4.15454224 21.95259584 -5 26 C-5.33 26 -5.66 26 -6 26 C-6.33592089 19.70459378 -6.1479355 15.59632978 -3 10 C-1.89225138 6.69671358 -0.93512316 3.35583205 0 0 Z " fill="#396874" transform="translate(189,221)"/>
<path d="M0 0 C0.99 0.495 0.99 0.495 2 1 C2 1.99 2 2.98 2 4 C2.66 4.33 3.32 4.66 4 5 C3.67 5.99 3.34 6.98 3 8 C2.93334624 9.39439664 2.91461801 10.79169875 2.9375 12.1875 C2.958125 13.445625 2.97875 14.70375 3 16 C3.66 16 4.32 16 5 16 C4.67 16.99 4.34 17.98 4 19 C3.01 18.67 2.02 18.34 1 18 C-0.32594359 12.03325384 -0.0884587 6.07416385 0 0 Z " fill="#325665" transform="translate(78,93)"/>
<path d="M0 0 C0.99 0 1.98 0 3 0 C3.66 1.98 4.32 3.96 5 6 C6.65 6.33 8.3 6.66 10 7 C10 7.99 10 8.98 10 10 C11.65 10.33 13.3 10.66 15 11 C15 11.66 15 12.32 15 13 C15.99 13.33 16.98 13.66 18 14 C12.49215083 14.49541501 10.18843541 12.25410349 6.09375 8.8828125 C3.73861522 6.76494876 1.74223651 4.65122946 0 2 C0 1.34 0 0.68 0 0 Z " fill="#4F9E9F" transform="translate(192,266)"/>
<path d="M0 0 C0.33 0 0.66 0 1 0 C1.33 8.58 1.66 17.16 2 26 C1.34 26 0.68 26 0 26 C-3.33534935 17.75972515 -1.8769302 8.50233337 0 0 Z " fill="#08172D" transform="translate(218,114)"/>
<path d="M0 0 C2.475 0.495 2.475 0.495 5 1 C4.67 1.66 4.34 2.32 4 3 C3.34 3 2.68 3 2 3 C1.67 9.6 1.34 16.2 1 23 C1.99 22.67 2.98 22.34 4 22 C5.56118428 21.93259135 7.1250252 21.91485544 8.6875 21.9375 C9.89986328 21.95103516 9.89986328 21.95103516 11.13671875 21.96484375 C11.75160156 21.97644531 12.36648437 21.98804688 13 22 C13 22.33 13 22.66 13 23 C6.565 23.495 6.565 23.495 0 24 C0 16.08 0 8.16 0 0 Z " fill="#3D747D" transform="translate(220,114)"/>
<path d="M0 0 C2 3 2 3 2 6 C2.66 6 3.32 6 4 6 C4.66666667 9.33333333 5.33333333 12.66666667 6 16 C6.22816406 16.87269531 6.45632812 17.74539063 6.69140625 18.64453125 C7 21 7 21 5 24 C4.15642037 20.940229 3.3269798 17.8767954 2.5 14.8125 C2.26152344 13.94818359 2.02304688 13.08386719 1.77734375 12.19335938 C1.55175781 11.35224609 1.32617188 10.51113281 1.09375 9.64453125 C0.88427734 8.87471924 0.67480469 8.10490723 0.45898438 7.31176758 C-0.03538729 4.82176477 -0.07833519 2.53218501 0 0 Z " fill="#0A2436" transform="translate(186,368)"/>
<path d="M0 0 C-3.84147426 5.26267902 -6.51152543 7.83207458 -13 9 C-13.33 7.35 -13.66 5.7 -14 4 C-13.34 4.66 -12.68 5.32 -12 6 C-11.2575 5.21625 -10.515 4.4325 -9.75 3.625 C-4.41176471 -1.47058824 -4.41176471 -1.47058824 0 0 Z " fill="#3F8287" transform="translate(258,359)"/>
<path d="M0 0 C0.33 0.66 0.66 1.32 1 2 C0.55269531 2.49628906 0.10539062 2.99257813 -0.35546875 3.50390625 C-3.3712207 6.89260833 -6.25176547 10.25090065 -8.8125 14 C-9.534375 14.99 -10.25625 15.98 -11 17 C-11.66 17 -12.32 17 -13 17 C-11.13242703 11.97191892 -8.98701285 7.65476178 -5 4 C-4.2265625 3.195625 -4.2265625 3.195625 -3.4375 2.375 C-2 1 -2 1 0 0 Z " fill="#335B69" transform="translate(282,343)"/>
<path d="M0 0 C5.82734713 -0.14551832 11.20815545 0.33602557 16.9375 1.375 C17.70384766 1.50132812 18.47019531 1.62765625 19.25976562 1.7578125 C21.187453 2.09929831 23.09673937 2.54153501 25 3 C25.33 3.66 25.66 4.32 26 5 C17.10458846 4.31349041 8.55720674 3.61955308 0 1 C0 0.67 0 0.34 0 0 Z " fill="#509FA0" transform="translate(160,148)"/>
<path d="M0 0 C0 0.66 0 1.32 0 2 C-2.22941405 1.68926976 -4.45852212 1.37634375 -6.6875 1.0625 C-7.92886719 0.88847656 -9.17023438 0.71445313 -10.44921875 0.53515625 C-13.32474548 0.10177103 -16.15644813 -0.39649282 -19 -1 C-19 -1.33 -19 -1.66 -19 -2 C-12.80736663 -3.85779001 -5.61439935 -3.17673866 0 0 Z " fill="#3A757D" transform="translate(187,136)"/>
<path d="M0 0 C1.0725 -0.01675781 2.145 -0.03351562 3.25 -0.05078125 C4.1575 0.06910156 5.065 0.18898437 6 0.3125 C6.66 1.3025 7.32 2.2925 8 3.3125 C7.67 4.3025 7.34 5.2925 7 6.3125 C6.484375 5.6525 5.96875 4.9925 5.4375 4.3125 C3.0531528 1.98129541 3.0531528 1.98129541 -0.625 1.9375 C-4.06832602 1.96436266 -4.06832602 1.96436266 -6 4.3125 C-6.46006346 6.51500992 -6.46006346 6.51500992 -6.625 8.9375 C-6.69976562 9.75476562 -6.77453125 10.57203125 -6.8515625 11.4140625 C-6.90054688 12.04054688 -6.94953125 12.66703125 -7 13.3125 C-7.66 12.9825 -8.32 12.6525 -9 12.3125 C-8.88601335 10.68669034 -8.75844341 9.06182843 -8.625 7.4375 C-8.55539063 6.53257813 -8.48578125 5.62765625 -8.4140625 4.6953125 C-7.53210374 -0.38011053 -4.45370832 0.01605904 0 0 Z " fill="#103341" transform="translate(195,48.6875)"/>
<path d="M0 0 C0.640625 1.80859375 0.640625 1.80859375 1 4 C-0.61171971 6.19372961 -2.14668841 8.04769847 -4 10 C-4.433125 10.5775 -4.86625 11.155 -5.3125 11.75 C-8.18758335 13.87969137 -11.5326562 14.26105788 -15 15 C-13.18145498 12.97939442 -11.54506518 11.72703911 -9.1875 10.3125 C-5.20596422 7.42393483 -2.75581904 4.02623207 0 0 Z " fill="#102E3E" transform="translate(225,265)"/>
<path d="M0 0 C0.33 0.99 0.66 1.98 1 3 C-0.59679804 4.3421492 -2.20270197 5.67347115 -3.8125 7 C-5.15248047 8.11375 -5.15248047 8.11375 -6.51953125 9.25 C-9 11 -9 11 -12 11 C-10.5611898 7.612801 -8.77880501 5.6405896 -6 3.25 C-5.29875 2.63640625 -4.5975 2.0228125 -3.875 1.390625 C-2 0 -2 0 0 0 Z " fill="#0E2638" transform="translate(260,371)"/>
<path d="M0 0 C0.99 0.33 1.98 0.66 3 1 C0.15062208 4.00767669 -2.22698701 6.29605865 -6 8 C-6.639375 8.515625 -7.27875 9.03125 -7.9375 9.5625 C-10.29598047 11.20628942 -12.17748429 11.60798393 -15 12 C-12.84072268 9.73982187 -10.57741384 7.85360252 -8.0625 6 C-7.39347656 5.505 -6.72445313 5.01 -6.03515625 4.5 C-5.36355469 4.005 -4.69195312 3.51 -4 3 C-2.97712891 2.13375 -2.97712891 2.13375 -1.93359375 1.25 C-1.29550781 0.8375 -0.65742188 0.425 0 0 Z " fill="#376974" transform="translate(320,115)"/>
<path d="M0 0 C0.66 0.66 1.32 1.32 2 2 C0.3603125 2.4021875 0.3603125 2.4021875 -1.3125 2.8125 C-5.37767186 4.02926603 -5.37767186 4.02926603 -8 7 C-8.72197162 9.60611077 -8.72197162 9.60611077 -9 12 C-9.66 12 -10.32 12 -11 12 C-10.51780822 4.76712329 -10.51780822 4.76712329 -8.3125 1.5 C-5.32599282 -0.43719384 -3.49555503 -0.45594196 0 0 Z " fill="#071F32" transform="translate(78,194)"/>
<path d="M0 0 C0 0.66 0 1.32 0 2 C-8.73952546 3.44796872 -17.13911833 4.29211698 -26 4 C-23.16778292 1.16778292 -21.01014994 1.62897528 -17.0625 1.4375 C-11.19547026 1.1402048 -5.88355445 -0.11101046 0 0 Z " fill="#243F4F" transform="translate(250,190)"/>
<path d="M0 0 C3.8209723 2.85895445 6.76445153 5.90809234 9.75 9.625 C10.52859375 10.58664062 11.3071875 11.54828125 12.109375 12.5390625 C14 15 14 15 15 17 C13.68 16.67 12.36 16.34 11 16 C11 15.34 11 14.68 11 14 C10.34 14 9.68 14 9 14 C9 13.01 9 12.02 9 11 C8.401875 10.95875 7.80375 10.9175 7.1875 10.875 C3.89444045 9.55777618 3.44117331 7.13298545 2 4 C0.43897509 2.18445841 0.43897509 2.18445841 -1 1 C-0.67 0.67 -0.34 0.34 0 0 Z " fill="#3B6D77" transform="translate(147,342)"/>
<path d="M0 0 C0.66 0.33 1.32 0.66 2 1 C0.62091784 3.9703308 -1.01444495 6.40350493 -3 9 C-3.52980469 9.70640625 -4.05960937 10.4128125 -4.60546875 11.140625 C-6.0703125 13.09375 -7.53515625 15.046875 -9 17 C-9.99 16.67 -10.98 16.34 -12 16 C-11.07767578 14.89591797 -11.07767578 14.89591797 -10.13671875 13.76953125 C-9.32847656 12.79371094 -8.52023437 11.81789063 -7.6875 10.8125 C-6.88699219 9.84957031 -6.08648437 8.88664062 -5.26171875 7.89453125 C-3.26888012 5.34411083 -1.58938754 2.81357599 0 0 Z " fill="#305262" transform="translate(280,325)"/>
<path d="M0 0 C7.92 0 15.84 0 24 0 C24 0.99 24 1.98 24 3 C16.08 2.34 8.16 1.68 0 1 C0 0.67 0 0.34 0 0 Z " fill="#203446" transform="translate(175,180)"/>
<path d="M0 0 C-0.99 0.33 -1.98 0.66 -3 1 C-3.33 1.99 -3.66 2.98 -4 4 C-7.60355181 4.78395368 -11.13872012 5.25266314 -14.8125 5.5625 C-15.78832031 5.64628906 -16.76414062 5.73007813 -17.76953125 5.81640625 C-18.50558594 5.87699219 -19.24164063 5.93757812 -20 6 C-16.63660335 3.75773557 -13.23659448 2.57407253 -9.4375 1.3125 C-8.40979492 0.95575195 -8.40979492 0.95575195 -7.36132812 0.59179688 C-2.24241255 -1.12120628 -2.24241255 -1.12120628 0 0 Z " fill="#133544" transform="translate(285,149)"/>
<path d="M0 0 C0.66 0.33 1.32 0.66 2 1 C-0.25 3.5 -0.25 3.5 -3 6 C-4.32 6 -5.64 6 -7 6 C-7.66 7.32 -8.32 8.64 -9 10 C-10.98 10 -12.96 10 -15 10 C-13.75193533 7.50387065 -12.81007774 7.2762644 -10.3125 6.125 C-6.62323423 4.35681136 -3.34896942 2.34427859 0 0 Z " fill="#133042" transform="translate(313,132)"/>
<path d="M0 0 C0.33 0 0.66 0 1 0 C1.69938 8.43141447 0.00603781 16.11189348 -3 24 C-3.66 24.33 -4.32 24.66 -5 25 C-4.45033703 19.77820176 -3.7243411 14.97015965 -2 10 C-1.34 9.67 -0.68 9.34 0 9 C0 6.03 0 3.06 0 0 Z " fill="#3E7880" transform="translate(232,237)"/>
<path d="M0 0 C3.875 1.875 3.875 1.875 5 3 C5.54441566 6.9923815 5.3175546 8.55734813 2.9375 11.875 C-0.65037512 14.47048413 -2.6677071 14.4247346 -7 14 C-7 13.67 -7 13.34 -7 13 C-5.02 13 -3.04 13 -1 13 C-0.67 12.01 -0.34 11.02 0 10 C0.66 10 1.32 10 2 10 C2 9.34 2 8.68 2 8 C2.66 8 3.32 8 4 8 C4 6.68 4 5.36 4 4 C2.68 3.67 1.36 3.34 0 3 C0 2.01 0 1.02 0 0 Z " fill="#4D989A" transform="translate(80,198)"/>
<path d="M0 0 C0.33 0.99 0.66 1.98 1 3 C0.34 2.67 -0.32 2.34 -1 2 C-0.67 1.34 -0.34 0.68 0 0 Z M-3 3 C-2.34 3.33 -1.68 3.66 -1 4 C-1.99 5.485 -1.99 5.485 -3 7 C-2.34 7.33 -1.68 7.66 -1 8 C-6.75 11 -6.75 11 -9 11 C-9 9.35 -9 7.7 -9 6 C-7.03533587 4.93224776 -5.03144641 3.93446535 -3 3 Z " fill="#32767B" transform="translate(295,107)"/>
<path d="M0 0 C0.99 0.495 0.99 0.495 2 1 C2.34375 3.765625 2.34375 3.765625 2.5 7.25 C2.70128276 11.69834908 3.34923526 14.90037353 5 19 C4.97104201 21.76548758 4.46488118 24.25720104 4 27 C3.67 27 3.34 27 3 27 C2.49129467 23.813827 1.99463419 20.62588525 1.5 17.4375 C1.35691406 16.54224609 1.21382812 15.64699219 1.06640625 14.72460938 C0.30107612 9.74996352 -0.16568252 5.03260643 0 0 Z " fill="#3F7980" transform="translate(164,322)"/>
<path d="M0 0 C0.66 0.66 1.32 1.32 2 2 C1.86764207 5.63984314 1.75811748 8.0960907 -0.625 10.9375 C-3.92116214 12.41209885 -6.43580741 12.3960214 -10 12 C-10.66 11.01 -11.32 10.02 -12 9 C-10.14375 9.0309375 -10.14375 9.0309375 -8.25 9.0625 C-5.3359175 9.06766681 -2.79046673 8.93015558 0 8 C0 5.36 0 2.72 0 0 Z " fill="#509296" transform="translate(345,200)"/>
<path d="M0 0 C4.78816533 0.5839226 8.60887583 2.03967671 13 4 C14.99263591 4.68836513 16.99041337 5.36281399 19 6 C19 6.66 19 7.32 19 8 C12.01573108 6.48616831 5.99835839 4.95346348 0 1 C0 0.67 0 0.34 0 0 Z " fill="#3A6975" transform="translate(129,112)"/>
<path d="M0 0 C0.66 0 1.32 0 2 0 C2 0.99 2 1.98 2 3 C2.66 3 3.32 3 4 3 C6.3119224 4.75706103 6.94176824 5.65892826 7.4375 8.5625 C7.73987379 11.17317795 7.73987379 11.17317795 10.0625 12.3125 C10.701875 12.539375 11.34125 12.76625 12 13 C10.68 13.33 9.36 13.66 8 14 C5.09518096 10.68020681 0 4.76778006 0 0 Z " fill="#0E273A" transform="translate(198,251)"/>
<path d="M0 0 C0.66 0 1.32 0 2 0 C1.19488648 5.37531676 -2.8687733 7.8918181 -7 11 C-9.8125 12.5 -9.8125 12.5 -12 13 C-12.99 12.67 -13.98 12.34 -15 12 C-14.00419922 11.45472656 -14.00419922 11.45472656 -12.98828125 10.8984375 C-7.51452266 7.781991 -3.80275927 4.99112154 0 0 Z " fill="#305664" transform="translate(284,198)"/>
<path d="M0 0 C0.66 0.33 1.32 0.66 2 1 C1.01 1.33 0.02 1.66 -1 2 C-1 2.66 -1 3.32 -1 4 C-6.56069582 6.25433614 -12.0785651 6.59961828 -18 7 C-15.20206314 5.13470876 -13.30531518 4.38932826 -10.125 3.5 C-7.3162945 2.69751272 -4.70100312 1.87541797 -2 0.75 C-1.34 0.5025 -0.68 0.255 0 0 Z " fill="#427D85" transform="translate(283,137)"/>
<path d="M0 0 C7.7276932 -0.31806054 13.93924474 -0.32270836 21 3 C21 3.33 21 3.66 21 4 C13.65081658 4.43230491 7.09784913 2.81774185 0 1 C0 0.67 0 0.34 0 0 Z " fill="#1E4151" transform="translate(160,146)"/>
<path d="M0 0 C0.66 0 1.32 0 2 0 C4.42172947 4.84345894 4.63005421 11.75332079 3.1875 16.9375 C2.23810961 19.38592785 1.28215339 21.71044038 0 24 C-0.33 23.01 -0.66 22.02 -1 21 C-0.01 19.515 -0.01 19.515 1 18 C1.28103674 14.70340711 1.28103674 14.70340711 1.1875 11.0625 C1.18105469 9.83660156 1.17460937 8.61070312 1.16796875 7.34765625 C1.03458647 4.68931644 0.78933154 2.51954626 0 0 Z " fill="#0B162E" transform="translate(232,234)"/>
<path d="M0 0 C3 2 3 2 3.546875 4.0234375 C3.64742187 5.18746094 3.64742187 5.18746094 3.75 6.375 C3.82734375 7.14585937 3.9046875 7.91671875 3.984375 8.7109375 C3.99997875 10.9968866 3.65703398 12.81984178 3 15 C0.73045369 11.59568053 0.63450051 9.83475798 0.375 5.8125 C0.30023438 4.72582031 0.22546875 3.63914063 0.1484375 2.51953125 C0.09945312 1.68808594 0.05046875 0.85664063 0 0 Z " fill="#32616D" transform="translate(213,217)"/>
<path d="M0 0 C0.66 0.99 1.32 1.98 2 3 C1.67 3.99 1.34 4.98 1 6 C0.34 6 -0.32 6 -1 6 C-1.33 7.65 -1.66 9.3 -2 11 C-5.27275026 11 -7.846632 10.70074844 -11 10 C-11 9.67 -11 9.34 -11 9 C-9.741875 8.814375 -8.48375 8.62875 -7.1875 8.4375 C-4.58129396 7.8147782 -3.36939111 7.52099789 -1.80078125 5.30859375 C-0.87461627 3.16740924 -0.87461627 3.16740924 0 0 Z " fill="#103342" transform="translate(85,203)"/>
<path d="M0 0 C0.33 1.32 0.66 2.64 1 4 C-3.9000081 7.33455096 -8.20644472 9.67231025 -14 11 C-14 10.34 -14 9.68 -14 9 C-12.2335343 7.9923048 -10.46166177 6.99408286 -8.6875 6 C-7.70136719 5.443125 -6.71523438 4.88625 -5.69921875 4.3125 C-3 3 -3 3 0 3 C0 2.01 0 1.02 0 0 Z " fill="#4B9093" transform="translate(300,136)"/>
<path d="M0 0 C0.66 0 1.32 0 2 0 C2.02725341 1.7290774 2.04650987 3.45828176 2.0625 5.1875 C2.07410156 6.15042969 2.08570313 7.11335938 2.09765625 8.10546875 C2.00486622 10.85576513 1.62111685 13.32479591 1 16 C-0.32 16.33 -1.64 16.66 -3 17 C-2.68289063 16.47921875 -2.36578125 15.9584375 -2.0390625 15.421875 C-0.71079489 12.32591291 -0.57635753 9.60595879 -0.375 6.25 C-0.30023438 5.07953125 -0.22546875 3.9090625 -0.1484375 2.703125 C-0.09945313 1.81109375 -0.05046875 0.9190625 0 0 Z " fill="#1D3A4B" transform="translate(336,97)"/>
<path d="M0 0 C2.59500704 3.89251056 1.86590203 5.5130531 1 10 C0.40885386 12.95573071 -0.57631527 15.34245516 -2 18 C-3.51553092 14.02549507 -2.49888623 10.79518851 -1.5625 6.75 C-1.27503906 5.48671875 -0.98757812 4.2234375 -0.69140625 2.921875 C-0.46324219 1.95765625 -0.23507813 0.9934375 0 0 Z " fill="#102F3F" transform="translate(248,348)"/>
<path d="M0 0 C0.99 0.33 1.98 0.66 3 1 C3 2.65 3 4.3 3 6 C3.66 6.33 4.32 6.66 5 7 C5.875 9.8125 5.875 9.8125 6 13 C4.0625 15.375 4.0625 15.375 2 17 C2.02320313 16.35933594 2.04640625 15.71867188 2.0703125 15.05859375 C2.18440863 9.59012904 1.79791904 5.16901723 0 0 Z " fill="#417C84" transform="translate(217,232)"/>
<path d="M0 0 C4.29 0 8.58 0 13 0 C12.67 3.63 12.34 7.26 12 11 C11.34 10.67 10.68 10.34 10 10 C10.020625 9.071875 10.04125 8.14375 10.0625 7.1875 C10.15769604 3.97713989 10.15769604 3.97713989 9 1 C6.36 1.33 3.72 1.66 1 2 C0.67 1.34 0.34 0.68 0 0 Z " fill="#428287" transform="translate(161,215)"/>
<path d="M0 0 C1.32 0 2.64 0 4 0 C4 0.66 4 1.32 4 2 C4.84304687 2.19335938 5.68609375 2.38671875 6.5546875 2.5859375 C7.65039062 2.84632813 8.74609375 3.10671875 9.875 3.375 C11.51082031 3.75785156 11.51082031 3.75785156 13.1796875 4.1484375 C16 5 16 5 18 7 C15.03 6.67 12.06 6.34 9 6 C8.67 6.66 8.34 7.32 8 8 C7.67 6.68 7.34 5.36 7 4 C6.401875 3.896875 5.80375 3.79375 5.1875 3.6875 C2.71756736 2.91123545 1.67748765 1.92911079 0 0 Z " fill="#3A6A75" transform="translate(142,209)"/>
<path d="M0 0 C0.99 0 1.98 0 3 0 C1.56 3.72 1.56 3.72 -0.625 4.8125 C-4.18089699 5.09322871 -7.47407819 4.52888827 -11 4 C-10.67 3.01 -10.34 2.02 -10 1 C-9.67 1.33 -9.34 1.66 -9 2 C-5.54178598 2.25003964 -5.54178598 2.25003964 -2 2 C-1.34 1.34 -0.68 0.68 0 0 Z M-5 5 C-4.34 5.33 -3.68 5.66 -3 6 C-3.99 6 -4.98 6 -6 6 C-5.67 5.67 -5.34 5.34 -5 5 Z " fill="#112D3D" transform="translate(344,209)"/>
<path d="M0 0 C0.33 0 0.66 0 1 0 C1 6.93 1 13.86 1 21 C-0.98 21 -2.96 21 -5 21 C-5 20.34 -5 19.68 -5 19 C-3.68 18.67 -2.36 18.34 -1 18 C-0.505 9.09 -0.505 9.09 0 0 Z " fill="#53A7A6" transform="translate(197,142)"/>
<path d="M0 0 C-0.9075 0.598125 -1.815 1.19625 -2.75 1.8125 C-5.8893965 3.83620328 -5.8893965 3.83620328 -8.125 5.8125 C-10 7 -10 7 -12.25 6.6875 C-12.8275 6.460625 -13.405 6.23375 -14 6 C-13.34 6 -12.68 6 -12 6 C-11.7525 5.1028125 -11.7525 5.1028125 -11.5 4.1875 C-9.15418119 0.76651423 -3.94799013 -1.97399507 0 0 Z " fill="#42858A" transform="translate(312,126)"/>
<path d="M0 0 C-3.83325617 2.70582788 -6.32538149 3.32613618 -11 3 C-11 3.66 -11 4.32 -11 5 C-13.97 5 -16.94 5 -20 5 C-20 4.67 -20 4.34 -20 4 C-17.0449595 3.13414375 -14.08554318 2.28433215 -11.125 1.4375 C-10.28324219 1.19064453 -9.44148438 0.94378906 -8.57421875 0.68945312 C-7.76855469 0.46064453 -6.96289062 0.23183594 -6.1328125 -0.00390625 C-5.01737061 -0.32597046 -5.01737061 -0.32597046 -3.87939453 -0.65454102 C-2 -1 -2 -1 0 0 Z M-7 3 C-5 4 -5 4 -5 4 Z " fill="#32606C" transform="translate(278,117)"/>
<path d="M0 0 C3.4375 1.3125 3.4375 1.3125 7 3 C7.33 3.99 7.66 4.98 8 6 C8.66 6.33 9.32 6.66 10 7 C10.625 9.5625 10.625 9.5625 11 12 C2.63371151 4.94975689 2.63371151 4.94975689 0 2 C0 1.34 0 0.68 0 0 Z " fill="#356C75" transform="translate(151,364)"/>
<path d="M0 0 C2.34402262 3.66253535 2.2947685 6.72585673 2 11 C1 14.4375 1 14.4375 0 17 C-0.33 17 -0.66 17 -1 17 C-1.02699725 14.72923158 -1.04639453 12.45837179 -1.0625 10.1875 C-1.07990234 8.29064453 -1.07990234 8.29064453 -1.09765625 6.35546875 C-1 3 -1 3 0 0 Z " fill="#4A9294" transform="translate(241,311)"/>
<path d="M0 0 C0.99 0.33 1.98 0.66 3 1 C1.4375 3.4375 1.4375 3.4375 -1 6 C-4.75 6.8125 -4.75 6.8125 -8 7 C-3.04087193 1.86376022 -3.04087193 1.86376022 0 0 Z " fill="#102C3C" transform="translate(245,382)"/>
<path d="M0 0 C2.64 0 5.28 0 8 0 C7.125 3.875 7.125 3.875 6 5 C4.33382885 5.04063832 2.66611905 5.042721 1 5 C0.67 3.35 0.34 1.7 0 0 Z " fill="#42BBB0" transform="translate(191,58)"/>
<path d="M0 0 C0 0.99 0 1.98 0 3 C-2.64 3.33 -5.28 3.66 -8 4 C-8.33 6.31 -8.66 8.62 -9 11 C-9.33 11 -9.66 11 -10 11 C-10.48541424 3.59743291 -10.48541424 3.59743291 -8.375 1 C-5.44617664 -0.23318878 -3.14711179 -0.2145758 0 0 Z " fill="#54A0A2" transform="translate(226,149)"/>
<path d="M0 0 C5.13373162 1.39038565 10.03739743 3.08460953 15 5 C15 5.33 15 5.66 15 6 C11.37 5.67 7.74 5.34 4 5 C4 4.34 4 3.68 4 3 C2.68 2.67 1.36 2.34 0 2 C0 1.34 0 0.68 0 0 Z " fill="#417B82" transform="translate(126,135)"/>
<path d="M0 0 C5.44567686 1.02862785 10.11817117 2.24614784 15 5 C11.66279166 6.12764117 9.68716506 5.87990246 6.375 4.75 C5.59898437 4.49734375 4.82296875 4.2446875 4.0234375 3.984375 C2 3 2 3 0 0 Z " fill="#3A707A" transform="translate(152,128)"/>
<path d="M0 0 C0.66 0.33 1.32 0.66 2 1 C-1.63 4.63 -5.26 8.26 -9 12 C-9.66 11.01 -10.32 10.02 -11 9 C-9.6696875 8.1646875 -9.6696875 8.1646875 -8.3125 7.3125 C-5.15720622 5.22146208 -2.60131889 2.75433765 0 0 Z " fill="#427C82" transform="translate(261,366)"/>
<path d="M0 0 C0.66 0.33 1.32 0.66 2 1 C1.35550393 4.01217112 0.34977818 6.51655836 -1.0625 9.25 C-1.42472656 9.95640625 -1.78695312 10.6628125 -2.16015625 11.390625 C-2.43730469 11.92171875 -2.71445313 12.4528125 -3 13 C-3.66 11.68 -4.32 10.36 -5 9 C-4.319375 8.1646875 -4.319375 8.1646875 -3.625 7.3125 C-1.96266232 4.94686561 -0.97855457 2.70984342 0 0 Z " fill="#448A8E" transform="translate(219,249)"/>
<path d="M0 0 C-0.99 0 -1.98 0 -3 0 C-3 0.66 -3 1.32 -3 2 C-4.6396875 2.2165625 -4.6396875 2.2165625 -6.3125 2.4375 C-9.93122987 2.88288104 -9.93122987 2.88288104 -13 4 C-15.1875 3.0625 -15.1875 3.0625 -17 2 C-14.91952703 1.4678559 -12.83547707 0.94968214 -10.75 0.4375 C-9.58984375 0.14746094 -8.4296875 -0.14257812 -7.234375 -0.44140625 C-4.27909017 -0.95179964 -2.75565899 -1.02996165 0 0 Z " fill="#183245" transform="translate(265,131)"/>
<path d="M0 0 C0.33 0 0.66 0 1 0 C1.08165496 2.20770805 1.13948488 4.41630425 1.1875 6.625 C1.22230469 7.85476562 1.25710937 9.08453125 1.29296875 10.3515625 C0.9787947 14.26407664 -0.03093467 16.64070218 -2 20 C-3.61447958 15.96380105 -2.19020382 13.0334685 -1 9 C-0.5617176 6.00824624 -0.25954805 3.01212347 0 0 Z " fill="#0E2C3D" transform="translate(233,238)"/>
<path d="M0 0 C1.32 0.33 2.64 0.66 4 1 C3.67 1.66 3.34 2.32 3 3 C2.77049681 5.204364 2.58924067 7.41392173 2.4375 9.625 C2.35371094 10.81351563 2.26992187 12.00203125 2.18359375 13.2265625 C2.12300781 14.14179688 2.06242188 15.05703125 2 16 C1.67 16 1.34 16 1 16 C0.08342019 10.61509359 -0.11138159 5.45769811 0 0 Z " fill="#469797" transform="translate(243,216)"/>
<path d="M0 0 C0.33 0 0.66 0 1 0 C1.33 2.97 1.66 5.94 2 9 C1.01 8.34 0.02 7.68 -1 7 C-2.98799818 6.29835358 -4.98698517 5.62627128 -7 5 C-6.67 4.01 -6.34 3.02 -6 2 C-4.02 2.99 -2.04 3.98 0 5 C0 3.35 0 1.7 0 0 Z " fill="#28525F" transform="translate(169,357)"/>
<path d="M0 0 C2.29158942 2.89818662 4.07862366 5.83140544 5.75 9.125 C6.19859375 9.99382812 6.6471875 10.86265625 7.109375 11.7578125 C7.40328125 12.49773437 7.6971875 13.23765625 8 14 C7.67 14.66 7.34 15.32 7 16 C3.26170422 11.70095985 0 5.75071925 0 0 Z " fill="#24384A" transform="translate(110,304)"/>
<path d="M0 0 C-0.99 0.33 -1.98 0.66 -3 1 C-3 1.66 -3 2.32 -3 3 C-7.33273814 3.92844389 -10.66726186 3.92844389 -15 3 C-15 2.67 -15 2.34 -15 2 C-13.25364835 1.46706165 -11.50272348 0.94909337 -9.75 0.4375 C-8.77546875 0.14746094 -7.8009375 -0.14257812 -6.796875 -0.44140625 C-4.03756068 -0.99249836 -2.6087176 -0.93789609 0 0 Z " fill="#3B6C77" transform="translate(271,212)"/>
<path d="M0 0 C2.10827055 3.16240582 2.33817465 4.50657469 2.625 8.1875 C2.69976562 9.08855469 2.77453125 9.98960937 2.8515625 10.91796875 C2.90054688 11.60503906 2.94953125 12.29210937 3 13 C2.01 13.495 2.01 13.495 1 14 C-0.20568053 9.32798795 -0.09382426 4.78503708 0 0 Z " fill="#4E9FA1" transform="translate(182,360)"/>
<path d="M0 0 C0.33 0 0.66 0 1 0 C1.08131463 1.43655854 1.13933559 2.8744483 1.1875 4.3125 C1.22230469 5.11300781 1.25710937 5.91351563 1.29296875 6.73828125 C0.93801608 9.47851584 0.10633718 10.29171079 -2 12 C-3.6442351 7.06729471 -2.18615592 4.45975807 0 0 Z " fill="#4B8E93" transform="translate(245,353)"/>
<path d="M0 0 C2.23574822 2.23574822 3.24368358 4.28966629 4.625 7.125 C5.07101563 8.03507812 5.51703125 8.94515625 5.9765625 9.8828125 C6.31429687 10.58148438 6.65203125 11.28015625 7 12 C6.01 12 5.02 12 4 12 C4 11.01 4 10.02 4 9 C3.01 9 2.02 9 1 9 C0.67 6.03 0.34 3.06 0 0 Z " fill="#123344" transform="translate(186,257)"/>
<path d="M0 0 C0.66 0 1.32 0 2 0 C3.0161692 4.62921525 2.83796731 8.34462607 2 13 C0 11 0 11 -0.1953125 8.3984375 C-0.17210937 7.40070313 -0.14890625 6.40296875 -0.125 5.375 C-0.10695312 4.37210938 -0.08890625 3.36921875 -0.0703125 2.3359375 C-0.04710937 1.56507813 -0.02390625 0.79421875 0 0 Z " fill="#427F86" transform="translate(184,242)"/>
<path d="M0 0 C0.66 0.99 1.32 1.98 2 3 C1.125 6.6875 1.125 6.6875 0 10 C0.66 10 1.32 10 2 10 C1.67 10.66 1.34 11.32 1 12 C0.34 11.67 -0.32 11.34 -1 11 C-1.484375 9.00390625 -1.484375 9.00390625 -1.75 6.5625 C-1.84796875 5.75941406 -1.9459375 4.95632812 -2.046875 4.12890625 C-2 2 -2 2 0 0 Z " fill="#488C90" transform="translate(71,199)"/>
<path d="M0 0 C0.68359375 1.734375 0.68359375 1.734375 1 4 C-0.21484375 6.140625 -0.21484375 6.140625 -1.9375 8.25 C-2.50339844 8.95640625 -3.06929688 9.6628125 -3.65234375 10.390625 C-4.31943359 11.18726562 -4.31943359 11.18726562 -5 12 C-5.66 11.01 -6.32 10.02 -7 9 C-5.59257936 5.48144841 -4.33533477 4.61387166 -1 3 C-0.67 2.01 -0.34 1.02 0 0 Z " fill="#34646F" transform="translate(335,106)"/>
<path d="M0 0 C1.64826111 2.96687001 2.44271087 5.65626525 3 9 C0.5625 8.1875 0.5625 8.1875 -2 7 C-2.33 6.01 -2.66 5.02 -3 4 C-2.34 3.67 -1.68 3.34 -1 3 C-0.67 2.01 -0.34 1.02 0 0 Z " fill="#4F8D94" transform="translate(190,388)"/>
<path d="M0 0 C2.83333333 4.25 2.83333333 4.25 3 7 C1.0625 9.25 1.0625 9.25 -1 11 C-1.125 3.375 -1.125 3.375 0 0 Z " fill="#3C8587" transform="translate(242,300)"/>
<path d="M0 0 C5.57142857 5.14285714 5.57142857 5.14285714 6 9 C4.125 8.8125 4.125 8.8125 2 8 C0.47835901 5.10888212 0 3.28176588 0 0 Z " fill="#448B8E" transform="translate(197,253)"/>
<path d="M0 0 C0.99 0.33 1.98 0.66 3 1 C-3.93548387 6.96774194 -3.93548387 6.96774194 -8 9 C-8.66 8.67 -9.32 8.34 -10 8 C-8.22198802 5.94124929 -7.00823887 5.00321517 -4.4375 4 C-1.68761678 3.13727591 -1.68761678 3.13727591 0 0 Z " fill="#355665" transform="translate(286,212)"/>
<path d="M0 0 C0.99 0.33 1.98 0.66 3 1 C2.67 4.96 2.34 8.92 2 13 C1.34 13 0.68 13 0 13 C0 8.71 0 4.42 0 0 Z " fill="#08162A" transform="translate(228,114)"/>
<path d="M0 0 C0.33 0.66 0.66 1.32 1 2 C-1.85276137 4.93200474 -4.65079784 7.64315404 -8 10 C-8.66 9.67 -9.32 9.34 -10 9 C-8.90344712 7.68113228 -7.79746577 6.37009943 -6.6875 5.0625 C-6.07261719 4.33160156 -5.45773437 3.60070312 -4.82421875 2.84765625 C-3 1 -3 1 0 0 Z " fill="#142A3D" transform="translate(335,113)"/>
<path d="M0 0 C1.32 0.33 2.64 0.66 4 1 C2.21385682 2.03046722 0.42089982 3.04913236 -1.375 4.0625 C-2.87160156 4.91521484 -2.87160156 4.91521484 -4.3984375 5.78515625 C-5.25695312 6.18605469 -6.11546875 6.58695313 -7 7 C-7.66 6.67 -8.32 6.34 -9 6 C-5.67692308 2.06153846 -5.67692308 2.06153846 -2.25 1.75 C-1.5075 1.8325 -0.765 1.915 0 2 C0 1.34 0 0.68 0 0 Z " fill="#10263A" transform="translate(300,127)"/>
<path d="M0 0 C0.33 0.66 0.66 1.32 1 2 C-2.16952847 5.26008643 -5.39937989 8.22237877 -9 11 C-9.66 10.34 -10.32 9.68 -11 9 C-5.40883978 5.1878453 -5.40883978 5.1878453 -2.6875 3.9375 C-0.64102129 3.04927159 -0.64102129 3.04927159 0 0 Z " fill="#172A3F" transform="translate(302,109)"/>
<path d="M0 0 C-0.57344937 2.86724686 -0.8614515 3.8614515 -3 6 C-3.99 6 -4.98 6 -6 6 C-5.6875 4.125 -5.6875 4.125 -5 2 C-2 0 -2 0 0 0 Z " fill="#142B3F" transform="translate(237,389)"/>
<path d="M0 0 C2 3 2 3 1.625 5.1875 C1.41875 5.785625 1.2125 6.38375 1 7 C0.34 7 -0.32 7 -1 7 C-1.66 8.32 -2.32 9.64 -3 11 C-3.33 10.34 -3.66 9.68 -4 9 C-3.22265625 6.8359375 -3.22265625 6.8359375 -2.0625 4.375 C-1.68222656 3.55773437 -1.30195313 2.74046875 -0.91015625 1.8984375 C-0.60980469 1.27195312 -0.30945313 0.64546875 0 0 Z " fill="#2B4454" transform="translate(296,295)"/>
<path d="M0 0 C0.66 0 1.32 0 2 0 C2 2.64 2 5.28 2 8 C1.01 8.495 1.01 8.495 0 9 C-1.36623674 6.26752652 -1.128426 4.01801098 -1 1 C-0.67 0.67 -0.34 0.34 0 0 Z " fill="#57A9A8" transform="translate(217,103)"/>
<path d="M0 0 C0.66 0 1.32 0 2 0 C2.33 1.98 2.66 3.96 3 6 C1.35 6.66 -0.3 7.32 -2 8 C-2.33 7.01 -2.66 6.02 -3 5 C-2.01 4.67 -1.02 4.34 0 4 C0 2.68 0 1.36 0 0 Z " fill="#4FA9A6" transform="translate(187,385)"/>
<path d="M0 0 C2.8638918 3.23342622 4.76838349 5.59928637 5 10 C4.01 11.485 4.01 11.485 3 13 C2.49487756 11.39743892 1.99608373 9.79288208 1.5 8.1875 C1.2215625 7.29417969 0.943125 6.40085937 0.65625 5.48046875 C0 3 0 3 0 0 Z " fill="#103040" transform="translate(188,379)"/>
<path d="M0 0 C0.66 0 1.32 0 2 0 C1.38479725 3.99881788 -0.60268669 6.80358226 -3 10 C-3.66 10 -4.32 10 -5 10 C-3.66749209 6.4124787 -2.169283 3.1635377 0 0 Z " fill="#386671" transform="translate(274,350)"/>
<path d="M0 0 C0 0.99 0 1.98 0 3 C-2.70879335 4.35439668 -5.00933268 4.06501451 -8 4 C-8.33 3.34 -8.66 2.68 -9 2 C-6.03 1.34 -3.06 0.68 0 0 Z " fill="#13122D" transform="translate(276,153)"/>
<path d="M0 0 C0 0.66 0 1.32 0 2 C-3.82989106 3.80230168 -6.78121808 4.19622241 -11 4 C-7.30030748 0.96096686 -4.76995305 0 0 0 Z " fill="#092134" transform="translate(283,136)"/>
<path d="M0 0 C5.28 0.66 10.56 1.32 16 2 C16 2.33 16 2.66 16 3 C13.89646505 3.0810206 11.79204048 3.13919907 9.6875 3.1875 C8.51574219 3.22230469 7.34398437 3.25710937 6.13671875 3.29296875 C3 3 3 3 0 0 Z " fill="#356671" transform="translate(165,123)"/>
<path d="M0 0 C3.63 0 7.26 0 11 0 C11.33 0.99 11.66 1.98 12 3 C10.56163249 2.88541307 9.12429034 2.75790884 7.6875 2.625 C6.88699219 2.55539063 6.08648437 2.48578125 5.26171875 2.4140625 C3 2 3 2 0 0 Z " fill="#132E41" transform="translate(148,118)"/>
<path d="M0 0 C2 1 2 1 4 3 C4.36933645 5.75372909 4.18336678 8.20365661 4 11 C3.01 11.495 3.01 11.495 2 12 C2.33 9.36 2.66 6.72 3 4 C2.360625 3.87625 1.72125 3.7525 1.0625 3.625 C0.381875 3.41875 -0.29875 3.2125 -1 3 C-1.33 2.34 -1.66 1.68 -2 1 C-1.34 0.67 -0.68 0.34 0 0 Z " fill="#43898E" transform="translate(199,100)"/>
<path d="M0 0 C0.66 0 1.32 0 2 0 C2 0.99 2 1.98 2 3 C-0.95664519 4.4783226 -3.74229737 4.06032783 -7 4 C-7.33 3.34 -7.66 2.68 -8 2 C-6.865625 1.855625 -5.73125 1.71125 -4.5625 1.5625 C-1.19222799 1.38828522 -1.19222799 1.38828522 0 0 Z " fill="#58A5AA" transform="translate(198,61)"/>
<path d="M0 0 C0.66 0.33 1.32 0.66 2 1 C0.02 1.99 0.02 1.99 -2 3 C-2 2.34 -2 1.68 -2 1 C-1.34 0.67 -0.68 0.34 0 0 Z M-4 3 C-3.34 3.33 -2.68 3.66 -2 4 C-3.65 5.65 -5.3 7.3 -7 9 C-7.99 8.67 -8.98 8.34 -10 8 C-8.02 6.35 -6.04 4.7 -4 3 Z " fill="#203144" transform="translate(93,73)"/>
<path d="M0 0 C1.65 1.65 3.3 3.3 5 5 C4.34 6.32 3.68 7.64 3 9 C2.67 7.68 2.34 6.36 2 5 C1.34 5 0.68 5 0 5 C0 3.35 0 1.7 0 0 Z " fill="#335A69" transform="translate(136,327)"/>
<path d="M0 0 C2.97 0.99 5.94 1.98 9 3 C9 3.66 9 4.32 9 5 C9.99 5.33 10.98 5.66 12 6 C8.18683244 6.57775266 6.23331413 5.71685634 3.1875 3.5625 C1.35546875 2.19140625 1.35546875 2.19140625 0 1 C0 0.67 0 0.34 0 0 Z " fill="#488D8F" transform="translate(198,274)"/>
<path d="M0 0 C0.99 0 1.98 0 3 0 C2.01906046 2.45234885 1.31296172 3.7809268 -0.875 5.3125 C-3.35009306 6.1132654 -4.58287634 5.86325845 -7 5 C-6.030625 4.54625 -5.06125 4.0925 -4.0625 3.625 C-0.92920418 2.34213779 -0.92920418 2.34213779 0 0 Z " fill="#53A3A3" transform="translate(214,273)"/>
<path d="M0 0 C2.31 0 4.62 0 7 0 C6.67 0.99 6.34 1.98 6 3 C3.69 3.33 1.38 3.66 -1 4 C-0.67 2.68 -0.34 1.36 0 0 Z " fill="#56A4A5" transform="translate(73,197)"/>
<path d="M0 0 C8.57142857 0.71428571 8.57142857 0.71428571 12 4 C7.6822542 3.49202991 3.96697886 2.80317221 0 1 C0 0.67 0 0.34 0 0 Z " fill="#51A4A4" transform="translate(147,153)"/>
<path d="M0 0 C7.42857143 -0.28571429 7.42857143 -0.28571429 11 2 C11 2.33 11 2.66 11 3 C9.54077307 2.88590407 8.08259402 2.75834456 6.625 2.625 C5.40683594 2.52058594 5.40683594 2.52058594 4.1640625 2.4140625 C2 2 2 2 0 0 Z " fill="#49898F" transform="translate(162,131)"/>
<path d="M0 0 C1.485 0.99 1.485 0.99 3 2 C3.29296875 4.1640625 3.29296875 4.1640625 3.1875 6.625 C3.16042969 7.44226563 3.13335937 8.25953125 3.10546875 9.1015625 C3.07066406 9.72804688 3.03585938 10.35453125 3 11 C1.0210244 7.36383344 0.4748935 4.11574371 0 0 Z " fill="#1C4754" transform="translate(182,356)"/>
<path d="M0 0 C0.33 0.66 0.66 1.32 1 2 C-0.1875 5.0625 -0.1875 5.0625 -2 8 C-4.1875 8.875 -4.1875 8.875 -6 9 C-4.47291037 5.56404834 -2.40072955 2.88087546 0 0 Z " fill="#142A3D" transform="translate(280,347)"/>
<path d="M0 0 C0.66 0.33 1.32 0.66 2 1 C0.02 3.31 -1.96 5.62 -4 8 C-4.99 7.67 -5.98 7.34 -7 7 C-2.25 1.125 -2.25 1.125 0 0 Z " fill="#335C6A" transform="translate(275,334)"/>
<path d="M0 0 C2.35119399 3.52679099 2.21443452 5.02879485 2.125 9.1875 C2.10695312 10.27417969 2.08890625 11.36085938 2.0703125 12.48046875 C2.03550781 13.72763672 2.03550781 13.72763672 2 15 C1.67 15 1.34 15 1 15 C0.93941406 14.37351562 0.87882813 13.74703125 0.81640625 13.1015625 C0.73261719 12.28429687 0.64882812 11.46703125 0.5625 10.625 C0.48128906 9.81289063 0.40007812 9.00078125 0.31640625 8.1640625 C0.10909886 5.95727195 0.10909886 5.95727195 -1 4 C-0.5625 1.875 -0.5625 1.875 0 0 Z " fill="#4A999A" transform="translate(172,300)"/>
<path d="M0 0 C-3.26545761 1.88391785 -6.28111761 2.49287967 -10 3 C-7.00991906 -1.48512141 -4.87831759 -1.18661779 0 0 Z " fill="#3C6774" transform="translate(269,224)"/>
<path d="M0 0 C2.4375 0.375 2.4375 0.375 5 1 C5.33 1.66 5.66 2.32 6 3 C6.99 3.33 7.98 3.66 9 4 C8.67 4.66 8.34 5.32 8 6 C4.5625 4.6875 4.5625 4.6875 1 3 C0.67 2.01 0.34 1.02 0 0 Z " fill="#48898E" transform="translate(112,138)"/>
<path d="M0 0 C4.29 0.33 8.58 0.66 13 1 C13 1.33 13 1.66 13 2 C11.39884424 2.2493357 9.79379841 2.47378648 8.1875 2.6875 C6.84751953 2.87892578 6.84751953 2.87892578 5.48046875 3.07421875 C3 3 3 3 0 0 Z " fill="#457C85" transform="translate(172,125)"/>
<path d="M0 0 C1.32 0 2.64 0 4 0 C4 0.66 4 1.32 4 2 C4.66 2 5.32 2 6 2 C6 2.66 6 3.32 6 4 C4.35 4 2.7 4 1 4 C1 3.34 1 2.68 1 2 C0.34 1.67 -0.32 1.34 -1 1 C-0.67 0.67 -0.34 0.34 0 0 Z " fill="#417E85" transform="translate(135,121)"/>
<path d="M0 0 C0 0.66 0 1.32 0 2 C-3.3 2.33 -6.6 2.66 -10 3 C-6.88378718 -0.11621282 -4.21175599 -0.11383124 0 0 Z " fill="#09172E" transform="translate(252,121)"/>
<path d="M0 0 C0.66 0.33 1.32 0.66 2 1 C0.68 1.33 -0.64 1.66 -2 2 C-2 2.66 -2 3.32 -2 4 C-4.70879335 5.35439668 -7.00933268 5.06501451 -10 5 C-8.66666667 4.33333333 -7.33333333 3.66666667 -6 3 C-4.453125 2.1646875 -4.453125 2.1646875 -2.875 1.3125 C-1.451875 0.6628125 -1.451875 0.6628125 0 0 Z " fill="#386471" transform="translate(288,111)"/>
<path d="M0 0 C2 2 2 2 2.1953125 4.6015625 C2.17210937 5.59929687 2.14890625 6.59703125 2.125 7.625 C2.10695312 8.62789062 2.08890625 9.63078125 2.0703125 10.6640625 C2.03550781 11.82035156 2.03550781 11.82035156 2 13 C1.01 13.33 0.02 13.66 -1 14 C-0.67 13.01 -0.34 12.02 0 11 C0.0685495 9.10529184 0.08480372 7.2083166 0.0625 5.3125 C0.05347656 4.31863281 0.04445312 3.32476562 0.03515625 2.30078125 C0.02355469 1.54152344 0.01195312 0.78226562 0 0 Z " fill="#062233" transform="translate(202,100)"/>
<path d="M0 0 C3.875 1.875 3.875 1.875 5 3 C5.04080783 4.99958364 5.04254356 7.00045254 5 9 C4.67 9 4.34 9 4 9 C4 7.35 4 5.7 4 4 C2.68 3.67 1.36 3.34 0 3 C0 2.01 0 1.02 0 0 Z " fill="#4B8E93" transform="translate(80,198)"/>
<path d="M0 0 C2.97 0 5.94 0 9 0 C9.33 1.32 9.66 2.64 10 4 C9.484375 3.67 8.96875 3.34 8.4375 3 C5.21973488 1.67989123 2.4429472 1.86757895 -1 2 C-0.67 1.34 -0.34 0.68 0 0 Z " fill="#193D4D" transform="translate(220,98)"/>
<path d="M0 0 C-3.49227877 2.9933818 -5.42228923 3 -10 3 C-10 2.34 -10 1.68 -10 1 C-3.375 -1.125 -3.375 -1.125 0 0 Z " fill="#0D172C" transform="translate(138,92)"/>
<path d="M0 0 C0.66 0 1.32 0 2 0 C2 1.98 2 3.96 2 6 C1.01 6.33 0.02 6.66 -1 7 C-0.67 4.69 -0.34 2.38 0 0 Z " fill="#52A1A2" transform="translate(231,368)"/>
<path d="M0 0 C2.97 1.98 2.97 1.98 6 4 C5.67 4.99 5.34 5.98 5 7 C3.29115995 5.37660195 1.62553283 3.70680947 0 2 C0 1.34 0 0.68 0 0 Z " fill="#335665" transform="translate(135,346)"/>
<path d="M0 0 C2.12508244 3.18762365 2.5020163 5.26512223 3 9 C2.01 9.495 2.01 9.495 1 10 C-0.1577506 6.52674819 -0.06866652 3.63932552 0 0 Z " fill="#449595" transform="translate(168,342)"/>
<path d="M0 0 C0.6875 1.8125 0.6875 1.8125 1 4 C-0.4375 5.75 -0.4375 5.75 -2 7 C-2.99 6.67 -3.98 6.34 -5 6 C-3.35 4.02 -1.7 2.04 0 0 Z " fill="#163D4A" transform="translate(225,265)"/>
<path d="M0 0 C3.375 0.3125 3.375 0.3125 7 1 C7.66 1.99 8.32 2.98 9 4 C6.1875 4.25 6.1875 4.25 3 4 C1.125 2 1.125 2 0 0 Z " fill="#081A2F" transform="translate(72,212)"/>
<path d="M0 0 C4.02992782 0.55312735 8.02022924 1.1558062 12 2 C12 2.33 12 2.66 12 3 C4.61538462 3.36923077 4.61538462 3.36923077 1.5 1.5 C1.005 1.005 0.51 0.51 0 0 Z " fill="#54999D" transform="translate(167,158)"/>
<path d="M0 0 C-0.66 0 -1.32 0 -2 0 C-2 0.66 -2 1.32 -2 2 C-1.01 2.33 -0.02 2.66 1 3 C-3.55384615 3.36923077 -3.55384615 3.36923077 -5.8125 1.5 C-6.4003125 0.7575 -6.4003125 0.7575 -7 0 C-3.86650268 -1.04449911 -3.01031744 -0.93423645 0 0 Z " fill="#4AA19F" transform="translate(139,148)"/>
<path d="M0 0 C2.31 0 4.62 0 7 0 C7.33 0.99 7.66 1.98 8 3 C5.6568787 2.74438677 3.32156597 2.40729228 1 2 C0.67 1.34 0.34 0.68 0 0 Z " fill="#091B2E" transform="translate(135,137)"/>
<path d="M0 0 C-2.97 0.66 -5.94 1.32 -9 2 C-8.67 1.01 -8.34 0.02 -8 -1 C-4.40321889 -2.61235015 -3.79177789 -1.89588895 0 0 Z " fill="#407981" transform="translate(268,129)"/>
</svg>
