<svg width="2176" height="2442" viewBox="0 0 2176 2442" fill="none" xmlns="http://www.w3.org/2000/svg">
<path d="M2014.16 379.309L1005.51 3.33672C883.069 -23.9076 778.281 120.394 778.281 264.507V440.374H876.367V264.507C876.367 182.586 928.679 87.3245 1005.51 116.072L2014.16 492.044C2069.74 526.053 2077.92 558.558 2077.92 640.479V1780.98C2077.92 1862.91 2079.39 1897.48 2014.16 1929.42L1005.51 2324.18C925.573 2351.24 876.367 2257.67 876.367 2175.75V1986.91H778.281V2175.75C778.281 2319.86 876.367 2468.86 1005.51 2436.92L2014.16 2042.16C2142.82 1986.91 2176 1925.1 2176 1780.98V640.479C2176 496.366 2125.81 420.833 2014.16 379.309Z" fill="url(#paint0_linear_701_2)"/>
<g clip-path="url(#clip0_701_2)">
<path d="M1278.5 1700.2C1278.5 1702.27 1278.01 1704.15 1277.03 1705.84C1276.21 1707.53 1274.91 1708.66 1273.27 1708.84L1164.89 1727.82C1163.58 1728.01 1162.27 1727.26 1161.62 1725.94C1160.64 1724.44 1160.15 1722.56 1160.15 1720.68L1154.26 721.847C1154.1 719.592 1154.59 717.525 1155.73 715.646C1156.22 714.331 1157.53 713.767 1158.67 713.955L1261.5 744.206C1263.14 744.769 1264.44 746.085 1265.1 747.776C1266.08 749.843 1266.57 752.097 1266.57 754.352L1278.5 1700.2Z" fill="black"/>
</g>
<g clip-path="url(#clip1_701_2)">
<path d="M557.334 628.552C588.297 573.107 622.682 551.534 660.816 562.699L884.403 629.12C886.032 629.687 887.336 631.012 887.988 632.904C888.966 635.175 889.455 637.824 889.455 640.474L886.521 1726.1C886.521 1728.38 886.032 1730.46 885.054 1732.35C884.24 1734.05 882.936 1735.38 881.143 1735.76L773.098 1754.87C771.957 1755.06 770.817 1754.3 769.839 1752.6C768.861 1750.71 768.372 1748.62 768.372 1746.54L775.706 796.591L681.349 776.532C668.475 773.883 657.068 781.642 646.964 799.808L158.887 1860.65C158.072 1862.35 156.768 1863.68 155.301 1864.25L4.72258 1890.74C2.27812 1891.12 0.811445 1888.85 0.322553 1884.11C-0.329303 1879.38 0.159589 1874.65 1.95219 1870.3L557.334 628.552Z" fill="black"/>
</g>
<defs>
<linearGradient id="paint0_linear_701_2" x1="1856.21" y1="2155.63" x2="173.988" y2="1057.14" gradientUnits="userSpaceOnUse">
<stop stop-color="#Black"/>
</linearGradient>
<clipPath id="clip0_701_2">
<rect width="124.242" height="1013.87" fill="white" transform="translate(1154.27 713.953)"/>
</clipPath>
<clipPath id="clip1_701_2">
<rect width="889.458" height="1330.88" fill="white" transform="translate(0 559.857)"/>
</clipPath>
</defs>
</svg>
