<?xml version="1.0" encoding="UTF-8" standalone="no" ?>
<!DOCTYPE svg PUBLIC "-//W3C//DTD SVG 1.1//EN" "http://www.w3.org/Graphics/SVG/1.1/DTD/svg11.dtd">
<svg xmlns="http://www.w3.org/2000/svg" xmlns:xlink="http://www.w3.org/1999/xlink" version="1.1" width="1080" height="1080" viewBox="0 0 1080 1080" xml:space="preserve">
<desc>Created with Fabric.js 5.2.4</desc>
<defs>
</defs>
<rect x="0" y="0" width="100%" height="100%" fill="transparent"></rect>
<g transform="matrix(1 0 0 1 540 540)" id="242334b1-76ab-4e1d-9571-3a5e4c8d654d"  >
<rect style="stroke: none; stroke-width: 1; stroke-dasharray: none; stroke-linecap: butt; stroke-dashoffset: 0; stroke-linejoin: miter; stroke-miterlimit: 4; fill: rgb(255,255,255); fill-rule: nonzero; opacity: 1; visibility: hidden;" vector-effect="non-scaling-stroke"  x="-540" y="-540" rx="0" ry="0" width="1080" height="1080" />
</g>
<g transform="matrix(1 0 0 1 540 540)" id="2775478d-4940-4b78-b03c-ed0f4e70fbf6"  >
</g>
<g transform="matrix(9.41 0 0 9.41 517.82 352.76)"  >
<path style="stroke: none; stroke-width: 1; stroke-dasharray: none; stroke-linecap: butt; stroke-dashoffset: 0; stroke-linejoin: miter; stroke-miterlimit: 4; fill: rgb(0,0,0); fill-rule: nonzero; opacity: 1;" vector-effect="non-scaling-stroke"  transform=" translate(-51.65, -36.87)" d="M 21.4301 47 C 20.4308 47 19.4957 46.7216 18.6249 46.1649 C 18.3251 48.8202 17.7184 51.0829 16.8047 52.9531 C 15.8911 54.8375 14.7561 56.2579 13.3999 57.2144 C 12.0437 58.1852 10.5661 58.6706 8.96722 58.6706 C 7.88225 58.6706 6.86152 58.4921 5.90503 58.1352 C 4.94854 57.7926 3.83502 57.3001 2.56446 56.6577 C 1.45094 56.1009 0.644349 55.7369 0.144691 55.5656 L 0.144691 55.3086 C 2.38601 54.8089 4.74868 53.9809 7.23269 52.8246 C 9.71671 51.6682 11.9295 50.4191 13.871 49.0771 C 15.8125 47.7495 17.1331 46.5789 17.8326 45.5653 C 16.1052 44.0948 14.4492 41.3753 12.8646 37.4066 C 13.25 36.8784 13.7211 36.0004 14.2779 34.7727 C 14.8489 33.5307 15.3272 32.3315 15.7126 31.1751 L 15.9696 31.1751 C 16.8261 34.0874 17.804 36.1146 18.9033 37.2567 C 20.0168 38.3845 21.2874 38.9484 22.715 38.9484 L 21.4301 47 Z M 47.6414 38.9484 L 46.3352 47 L 45.0289 47 C 43.0731 47 41.4242 46.8787 40.0823 46.636 C 38.7404 46.3933 37.5697 45.9436 36.5704 45.2869 C 35.5854 44.6302 34.7645 43.7023 34.1078 42.5031 C 32.5089 43.7451 31.0956 44.6873 29.8679 45.3297 C 28.6401 45.9579 27.3839 46.3933 26.099 46.636 C 24.8285 46.8787 23.2652 47 21.4094 47 C 20.5528 47 20.1245 46.1363 20.1245 44.4089 C 20.1245 42.6101 20.353 41.2539 20.8098 40.3403 C 21.2666 39.4123 21.9019 38.9484 22.7156 38.9484 C 24.6 38.9484 26.1989 38.9198 27.5123 38.8627 C 28.8257 38.7913 29.9749 38.67 30.96 38.4987 C 30.4603 37.7135 29.668 36.5857 28.583 35.1153 C 27.7122 33.9589 27.0484 33.031 26.5915 32.3315 C 25.3495 32.7169 24.3145 33.1095 23.4865 33.5092 L 23.2296 33.2523 C 23.5722 32.5385 23.9933 31.582 24.493 30.3828 C 24.9926 29.1836 25.3353 28.2343 25.5208 27.5348 C 26.9056 26.8781 28.5973 26.3284 30.5959 25.8859 C 32.5946 25.4291 34.4647 25.2006 36.2064 25.2006 C 37.8481 25.2006 39.5755 25.4005 41.3885 25.8002 C 43.2159 26.2 44.8647 26.7781 46.3352 27.5348 C 46.0639 27.9488 45.6999 28.684 45.2431 29.7404 C 44.7862 30.7825 44.3722 31.8604 44.001 32.9739 C 43.2016 33.9875 41.3957 35.8362 38.5833 38.5201 C 39.2543 38.72 40.118 38.8413 41.1744 38.8841 C 42.2308 38.927 43.8654 38.9484 46.0782 38.9484 L 47.6414 38.9484 Z M 35.3927 30.8967 C 34.1649 30.8967 32.8587 31.0038 31.4739 31.2179 C 30.0891 31.4178 28.7329 31.7033 27.4053 32.0745 C 28.3332 32.7598 29.2754 33.4593 30.2319 34.1731 C 31.2027 34.8726 32.0664 35.5007 32.823 36.0575 L 34.6646 37.3852 C 36.8202 36.2859 39.4756 34.8298 42.6306 33.0167 L 43.6798 32.4171 C 41.2386 31.4035 38.4763 30.8967 35.3927 30.8967 Z M 46.3365 47 C 45.4799 47 45.0517 46.1363 45.0517 44.4089 C 45.0517 42.6101 45.2801 41.2539 45.7369 40.3403 C 46.1937 39.4123 46.829 38.9484 47.6427 38.9484 L 56.7222 38.9484 L 55.4374 47 L 46.3365 47 Z M 55.4123 47 C 54.5558 47 54.1275 46.1363 54.1275 44.4089 C 54.1275 42.6101 54.3559 41.2539 54.8127 40.3403 C 55.2696 39.4123 55.9048 38.9484 56.7186 38.9484 L 65.7981 38.9484 L 64.5132 47 L 55.4123 47 Z M 64.4881 47 C 63.6316 47 63.2033 46.1363 63.2033 44.4089 C 63.2033 42.6101 63.4317 41.2539 63.8885 40.3403 C 64.3454 39.4123 64.9807 38.9484 65.7944 38.9484 L 74.8739 38.9484 L 73.589 47 L 64.4881 47 Z M 100.867 27.1707 C 101.295 28.1272 101.659 29.0337 101.959 29.8903 C 102.273 30.7468 102.551 31.8033 102.794 33.0595 C 103.037 34.3016 103.158 35.6578 103.158 37.1282 C 103.158 40.2832 102.63 42.7172 101.573 44.4303 C 100.531 46.1434 98.9823 47 96.9265 47 C 93.586 47 91.9157 45.2369 91.9157 41.7108 C 91.9157 41.1968 91.9442 40.7114 92.0013 40.2546 L 91.7444 40.2546 C 91.5017 42.4959 90.8093 44.1805 89.6672 45.3083 C 88.5394 46.4361 87.1546 47 85.5129 47 C 84.1567 47 83.0931 46.6074 82.3222 45.8222 C 81.5656 45.0371 81.1873 43.845 81.1873 42.2461 C 81.1873 41.5609 81.2444 40.897 81.3586 40.2546 L 81.1016 40.2546 C 80.7162 42.553 79.8882 44.2519 78.6176 45.3511 C 77.3613 46.4504 75.6768 47 73.5639 47 C 73.1642 47 72.8501 46.793 72.6217 46.379 C 72.3933 45.9507 72.2791 45.294 72.2791 44.4089 C 72.2791 42.6244 72.5147 41.2682 72.9858 40.3403 C 73.4426 39.4123 74.0707 38.9484 74.8702 38.9484 C 76.412 38.9484 77.6611 38.7985 78.6176 38.4987 C 79.5884 38.1989 80.3736 37.6564 80.9732 36.8712 C 81.587 36.086 82.0653 34.9654 82.4079 33.5092 L 82.9218 33.5092 C 82.8362 34.2373 82.6292 35.7363 82.3008 38.0062 C 83.2573 38.6343 84.6706 38.9484 86.5408 38.9484 C 87.8684 38.9484 88.932 38.7842 89.7314 38.4559 C 90.5452 38.1132 91.1876 37.5565 91.6587 36.7856 C 92.1441 36.0004 92.5153 34.9083 92.7722 33.5092 L 93.3076 33.5092 L 92.7294 37.8348 C 93.1577 38.1775 93.7858 38.4487 94.6138 38.6486 C 95.4418 38.8484 96.3912 38.9484 97.4619 38.9484 C 98.2756 38.9484 99.0536 38.8841 99.796 38.7556 C 100.538 38.6129 101.138 38.4416 101.595 38.2417 C 102.052 38.0276 102.28 37.8348 102.28 37.6635 C 102.28 37.378 101.916 36.8926 101.188 36.2074 C 100.474 35.5221 99.1393 34.4443 97.1835 32.9739 C 97.726 32.1602 98.2899 31.1608 98.8752 29.9759 C 99.4605 28.791 99.9387 27.6276 100.31 26.4855 L 100.567 26.4855 L 100.867 27.1707 Z M 90.952 21.8172 C 90.4809 21.3461 89.8599 20.8179 89.089 20.2326 C 88.3181 19.6473 87.64 19.2262 87.0547 18.9692 L 87.0547 18.7122 L 89.9242 15.0719 C 90.6665 15.4288 91.416 15.9284 92.1726 16.5708 C 92.9435 17.199 93.4932 17.7343 93.8215 18.1769 L 90.952 21.8172 Z M 97.6974 23.0164 C 97.4262 23.4875 97.0907 24.2513 96.691 25.3077 C 96.2912 26.3499 96.0271 27.1422 95.8987 27.6847 C 94.2284 27.7989 92.5652 27.8917 90.9092 27.963 C 89.2532 28.0201 87.9684 28.0487 87.0547 28.0487 C 85.827 28.0487 84.9133 27.8988 84.3137 27.599 C 83.7284 27.2849 83.4358 26.7424 83.4358 25.9715 C 83.4358 25.7288 83.4714 25.4719 83.5428 25.2006 C 83.6142 24.9294 83.7284 24.5796 83.8854 24.1514 C 84.1852 23.2805 84.378 22.5881 84.4636 22.0742 L 84.7206 22.0742 C 84.7206 22.5739 84.9776 22.9165 85.4915 23.1021 C 86.0197 23.2877 86.8905 23.3805 88.104 23.3805 C 88.9605 23.3805 90.4381 23.3519 92.5367 23.2948 C 94.6352 23.2234 96.3555 23.1306 97.6974 23.0164 Z" stroke-linecap="round" />
</g>
<g transform="matrix(9.41 0 0 9.41 567.46 758.96)"  >
<path style="stroke: none; stroke-width: 1; stroke-dasharray: none; stroke-linecap: butt; stroke-dashoffset: 0; stroke-linejoin: miter; stroke-miterlimit: 4; fill: rgb(0,0,0); fill-rule: nonzero; opacity: 1;" vector-effect="non-scaling-stroke"  transform=" translate(-56.92, -80.03)" d="M 29.4368 98.3237 C 27.3097 98.3237 25.5181 97.51 24.0619 95.8825 C 22.6058 94.2551 21.6279 91.6069 21.1282 87.938 L 20.8713 87.938 C 20.6143 91.4784 19.7435 94.1409 18.2588 95.9254 C 16.7741 97.6956 14.6184 98.5807 11.7918 98.5807 C 9.83597 98.5807 8.35127 98.0596 7.33768 97.0175 C 6.32408 95.9753 5.81729 94.4193 5.81729 92.3492 C 5.81729 91.6497 5.86012 90.8574 5.94577 89.9723 C 6.0457 89.0872 6.17419 88.0236 6.33122 86.7816 L 6.73809 86.7816 C 6.73809 87.7952 6.90226 88.5661 7.23061 89.0943 C 7.57323 89.6225 8.13713 89.9937 8.9223 90.2079 C 9.70748 90.422 10.8353 90.5291 12.3057 90.5291 C 13.7476 90.5291 15.061 90.4006 16.2459 90.1436 C 17.445 89.8867 18.3873 89.544 19.0725 89.1157 C 19.7577 88.6732 20.1004 88.195 20.1004 87.681 C 20.1004 87.3812 19.9505 86.6674 19.6507 85.5396 C 19.3509 84.3976 18.944 83.1199 18.4301 81.7065 C 17.9161 80.2932 17.3451 78.9941 16.717 77.8092 C 17.2452 77.1668 17.9947 75.9747 18.9654 74.2331 C 19.9362 72.4771 20.4858 71.3351 20.6143 70.8069 L 20.8713 70.8069 C 21.0569 71.7633 21.3281 72.9697 21.685 74.4258 C 22.0562 75.882 22.513 77.6308 23.0555 79.6722 C 24.0405 83.4839 24.4403 85.0257 24.2547 84.2976 C 24.6258 85.7823 25.0969 86.9601 25.668 87.8309 C 26.2533 88.7017 26.9528 89.3299 27.7665 89.7153 C 28.5945 90.0865 29.5867 90.2721 30.7431 90.2721 L 29.4368 98.3237 Z M 29.4218 98.3237 C 28.5652 98.3237 28.1369 97.46 28.1369 95.7326 C 28.1369 93.9339 28.3654 92.5777 28.8222 91.664 C 29.279 90.7361 29.9143 90.2721 30.728 90.2721 L 39.8075 90.2721 L 38.5227 98.3237 L 29.4218 98.3237 Z M 38.4976 98.3237 C 37.641 98.3237 37.2128 97.46 37.2128 95.7326 C 37.2128 93.9339 37.4412 92.5777 37.898 91.664 C 38.3548 90.7361 38.9901 90.2721 39.8038 90.2721 L 48.8833 90.2721 L 47.5985 98.3237 L 38.4976 98.3237 Z M 47.5734 98.3237 C 46.7168 98.3237 46.2886 97.46 46.2886 95.7326 C 46.2886 93.9339 46.517 92.5777 46.9738 91.664 C 47.4306 90.7361 48.0659 90.2721 48.8797 90.2721 L 57.9592 90.2721 L 56.6743 98.3237 L 47.5734 98.3237 Z M 56.6492 98.3237 C 55.7927 98.3237 55.3644 97.46 55.3644 95.7326 C 55.3644 93.9339 55.5928 92.5777 56.0496 91.664 C 56.5065 90.7361 57.1417 90.2721 57.9555 90.2721 L 67.035 90.2721 L 65.7501 98.3237 L 56.6492 98.3237 Z M 65.725 98.3237 C 64.8685 98.3237 64.4402 97.46 64.4402 95.7326 C 64.4402 93.9339 64.6686 92.5777 65.1254 91.664 C 65.5823 90.7361 66.2176 90.2721 67.0313 90.2721 L 76.1108 90.2721 L 74.8259 98.3237 L 65.725 98.3237 Z M 74.8009 98.3237 C 73.9443 98.3237 73.516 97.46 73.516 95.7326 C 73.516 93.9339 73.7444 92.5777 74.2013 91.664 C 74.6581 90.7361 75.2934 90.2721 76.1071 90.2721 L 85.1866 90.2721 L 83.9018 98.3237 L 74.8009 98.3237 Z M 100.237 86.9101 C 100.237 89.7368 99.6944 91.9852 98.6094 93.6555 C 97.5387 95.3115 95.9256 96.5035 93.7699 97.2316 C 91.6142 97.9597 88.8376 98.3237 85.4399 98.3237 L 83.8767 98.3237 C 83.0201 98.3237 82.5918 97.46 82.5918 95.7326 C 82.5918 93.9339 82.8202 92.5777 83.2771 91.664 C 83.7339 90.7361 84.3692 90.2721 85.1829 90.2721 L 86.4892 90.2721 C 89.4728 90.2721 91.9354 90.1365 93.877 89.8652 C 95.8328 89.594 97.2532 89.2585 98.1383 88.8588 C 99.0234 88.4591 99.466 88.0665 99.466 87.681 C 99.466 87.3812 98.8593 86.7674 97.6458 85.8394 C 96.4324 84.8972 94.7192 83.8194 92.5065 82.6059 C 90.308 81.3925 87.7811 80.229 84.9259 79.1155 C 85.3257 78.2446 85.861 76.9241 86.532 75.1539 C 87.203 73.3837 87.6883 72.0203 87.9881 71.0638 L 88.138 70.5285 C 88.2665 70.0716 88.3736 69.7362 88.4592 69.522 C 88.5592 69.3079 88.7091 69.1223 88.9089 68.9653 C 89.1088 68.8082 89.4229 68.6441 89.8511 68.4727 L 107.775 61.4704 L 108.032 61.5775 C 107.261 62.9051 106.575 64.2471 105.976 65.6033 C 105.391 66.9452 104.948 68.1587 104.648 69.2436 L 88.031 73.6549 L 88.031 73.9333 C 91.4857 75.4465 94.0911 76.8599 95.847 78.1732 C 97.603 79.4866 98.7736 80.8072 99.3589 82.1348 C 99.9442 83.4482 100.237 85.04 100.237 86.9101 Z" stroke-linecap="round" />
</g>
<g transform="matrix(9.41 0 0 9.41 582.89 628.03)"  >
<path style="stroke: none; stroke-width: 1; stroke-dasharray: none; stroke-linecap: butt; stroke-dashoffset: 0; stroke-linejoin: miter; stroke-miterlimit: 4; fill: rgb(0,0,0); fill-rule: nonzero; opacity: 1;" vector-effect="non-scaling-stroke"  transform=" translate(-58.56, -66.12)" d="M 57.5708 79.0144 C 56.2018 79.0144 55.1125 78.7996 54.3031 78.3698 C 53.4936 77.9401 52.884 77.2156 52.4743 76.1963 C 52.0746 75.177 51.8348 73.753 51.7548 71.9243 C 51.6349 68.9263 51.51 66.5929 51.3801 64.9241 C 51.2602 63.2552 51.1203 61.9561 50.9604 61.0267 C 50.8005 60.0974 50.5806 59.0681 50.3008 57.9388 C 50.9004 57.3392 51.53 56.6047 52.1895 55.7353 C 52.8491 54.8559 53.4337 54.0165 53.9433 53.2171 L 54.1232 53.2171 C 54.1232 53.5868 54.1432 54.2813 54.1832 55.3006 C 54.2631 56.7197 54.3031 58.1437 54.3031 59.5727 C 54.3031 60.4621 54.2731 61.9861 54.2131 64.1446 C 54.1532 66.503 54.1232 68.3117 54.1232 69.5709 C 54.1232 70.86 54.468 71.8193 55.1575 72.4489 C 55.857 73.0685 56.9662 73.3783 58.4852 73.3783 L 57.5708 79.0144 Z M 65.7468 71.3846 C 65.7468 73.1334 65.487 74.5625 64.9673 75.6717 C 64.4577 76.7809 63.6033 77.6154 62.4041 78.175 C 61.2149 78.7346 59.601 79.0144 57.5624 79.0144 C 56.9628 79.0144 56.663 78.4098 56.663 77.2006 C 56.663 75.9415 56.8229 74.9922 57.1427 74.3526 C 57.4625 73.703 57.9072 73.3783 58.4768 73.3783 C 59.546 73.3783 60.5953 73.3183 61.6246 73.1984 C 62.6639 73.0785 63.5083 72.9186 64.1579 72.7187 C 64.8074 72.5189 65.1322 72.314 65.1322 72.1041 C 65.1322 71.9243 64.9324 71.6095 64.5326 71.1598 C 64.1329 70.7101 63.6233 70.2204 63.0037 69.6908 C 62.3941 69.1612 61.7945 68.6965 61.2049 68.2967 C 61.5946 67.7871 62.0243 67.0576 62.494 66.1082 C 62.9637 65.1489 63.3185 64.3045 63.5583 63.575 L 63.7532 63.575 C 63.7931 63.7049 63.8931 63.9347 64.053 64.2645 C 64.5326 65.3438 64.9324 66.443 65.2521 67.5622 C 65.5819 68.6815 65.7468 69.9556 65.7468 71.3846 Z M 66.8261 58.0588 C 66.6462 58.3785 66.4163 58.9332 66.1365 59.7226 C 65.8567 60.5021 65.6669 61.0967 65.5669 61.5064 C 64.3977 61.5863 63.2335 61.6513 62.0743 61.7013 C 60.9151 61.7412 60.0157 61.7612 59.3762 61.7612 C 58.5167 61.7612 57.8822 61.6563 57.4725 61.4464 C 57.0528 61.2266 56.8429 60.8468 56.8429 60.3072 C 56.8429 60.1273 56.8729 59.9325 56.9328 59.7226 C 56.9828 59.5028 57.0627 59.228 57.1727 58.8982 C 57.3625 58.3086 57.4925 57.8089 57.5624 57.3992 L 57.7423 57.3992 C 57.7423 57.749 57.9272 57.9888 58.2969 58.1187 C 58.6567 58.2486 59.2612 58.3136 60.1107 58.3136 C 60.7102 58.3136 61.7445 58.2936 63.2135 58.2536 C 64.6825 58.2037 65.8867 58.1387 66.8261 58.0588 Z" stroke-linecap="round" />
</g>
</svg>