<svg id="logosandtypes_com" data-name="logosandtypes com" xmlns="http://www.w3.org/2000/svg" viewBox="0 0 150 150"><defs><style>.cls-1{fill:none;}.cls-2{fill:#09c;}</style></defs><path class="cls-1" d="M0,.2H150v150H0Z" transform="translate(0 -0.2)"/><path class="cls-2" d="M75.32,12.58A61.65,61.65,0,1,0,137,74.23,61.65,61.65,0,0,0,75.32,12.58Zm36.32,79a18.78,18.78,0,0,1-2.15,8.75L79.33,70.12l-8,8,37.16,37.15-4,4,0,0a30.26,30.26,0,0,0-21.4-8.86H57.92A18.91,18.91,0,0,1,39,91.54V56.73A18.91,18.91,0,0,1,57.92,37.81h34.8a18.92,18.92,0,0,1,18.92,18.92Z" transform="translate(0 -0.2)"/></svg>