<?xml version="1.0" encoding="utf-8"?>
<!-- Generator: Adobe Illustrator 25.2.0, SVG Export Plug-In . SVG Version: 6.00 Build 0)  -->
<svg version="1.1" id="Layer_1" xmlns="http://www.w3.org/2000/svg" xmlns:xlink="http://www.w3.org/1999/xlink" x="0px" y="0px"
	 viewBox="0 0 232.15 320.18" style="enable-background:new 0 0 232.15 320.18;" xml:space="preserve">
<style type="text/css">
	.st0{fill:#9760C8;}
	.st1{fill:#35096D;}
	.st2{fill:#4C1A8B;}
	.st3{fill:#6522BA;}
</style>
<g>
	<g>
		<path class="st0" d="M228.54,37.49l-15.91-5.34l0,0L117.76,0.28c-1.09-0.37-2.28-0.37-3.37,0L26.44,29.82l0,0L3.61,37.49
			c-0.95,0.32-1.75,0.9-2.36,1.63l113.14,38c1.09,0.37,2.28,0.37,3.37,0l113.14-38C230.29,38.38,229.49,37.8,228.54,37.49z"/>
		<g>
			<path class="st1" d="M114.39,271.35l-113.15-38C0.47,234.27,0,235.45,0,236.72v17.21v23.74c0,2.27,1.45,4.29,3.61,5.02
				l110.78,37.21c0.55,0.18,1.12,0.28,1.69,0.28v-48.56C115.5,271.63,114.94,271.53,114.39,271.35z"/>
			<path class="st2" d="M230.9,39.12l-113.14,38c-0.55,0.18-1.12,0.28-1.69,0.28v48.56c0.57,0,1.14-0.09,1.69-0.28l110.78-37.21
				c2.16-0.72,3.61-2.74,3.61-5.02V54.12V42.5C232.15,41.23,231.68,40.05,230.9,39.12z"/>
			<path class="st1" d="M114.39,77.12l-113.14-38C0.47,40.05,0,41.23,0,42.5V60.7v119.87c0,2.27,1.45,4.29,3.61,5.02l110.78,37.21
				c0.55,0.18,1.12,0.28,1.69,0.28v-48.56c-0.57,0-1.14-0.09-1.69-0.28l-66.99-22.5c-2.16-0.72-3.61-2.74-3.61-5.02v-37.39
				c0-3.62,3.55-6.17,6.98-5.02l63.62,21.37c0.55,0.18,1.12,0.28,1.69,0.28V77.39C115.5,77.39,114.94,77.3,114.39,77.12z"/>
			<path class="st2" d="M117.76,222.79l63.62-21.37c3.43-1.15,6.98,1.4,6.98,5.02v37.39c0,2.27-1.45,4.29-3.61,5.02l-66.99,22.5
				c-0.55,0.18-1.12,0.28-1.69,0.28v48.56c0.57,0,1.14-0.09,1.69-0.28l110.78-37.21c2.16-0.72,3.61-2.74,3.61-5.02V159.45v-19.83
				c0-1.27-0.47-2.46-1.25-3.39l-113.14,38c-0.55,0.18-1.12,0.28-1.69,0.28v48.56C116.64,223.07,117.21,222.98,117.76,222.79z"/>
		</g>
		<g>
			<path class="st0" d="M206.73,127.28L206.73,127.28l-46.86-15.74l-35.95,12.07L45.04,150.1c0.61,0.73,1.41,1.31,2.36,1.63
				l66.99,22.5c1.09,0.37,2.28,0.37,3.37,0l113.14-38c-0.61-0.73-1.41-1.31-2.36-1.63L206.73,127.28z"/>
			<path class="st3" d="M117.76,125.68c-1.09,0.37-2.28,0.37-3.37,0l-63.62-21.37c-3.43-1.15-6.98,1.4-6.98,5.02v37.39
				c0,1.27,0.47,2.46,1.25,3.39l78.88-26.49L117.76,125.68z"/>
		</g>
		<g>
			<path class="st3" d="M188.35,243.83l0-37.39c0-3.62-3.55-6.17-6.98-5.02l-63.62,21.37c-1.09,0.37-2.28,0.37-3.37,0l72.72,24.43
				C187.89,246.29,188.35,245.1,188.35,243.83z"/>
			<path class="st0" d="M114.39,222.79C114.39,222.79,114.39,222.79,114.39,222.79l-42.11-14.14L23.7,224.97
				c0,0-0.03,0.01-0.04,0.01l-0.48,0.16c-0.06,0.02-0.12,0.04-0.18,0.06L3.6,231.72c-0.95,0.32-1.75,0.9-2.36,1.63l113.14,38
				c1.09,0.37,2.28,0.37,3.37,0l66.99-22.5c0.95-0.32,1.75-0.9,2.36-1.63L114.39,222.79z"/>
		</g>
	</g>
</g>
</svg>
